%TF.GenerationSoftware,KiCad,Pcbnew,(6.0.1)*%
%TF.CreationDate,2022-03-02T01:05:40-06:00*%
%TF.ProjectId,m2-USBC-Adapter-Rev2,6d322d55-5342-4432-9d41-646170746572,rev?*%
%TF.SameCoordinates,Original*%
%TF.FileFunction,Legend,Top*%
%TF.FilePolarity,Positive*%
%FSLAX46Y46*%
G04 Gerber Fmt 4.6, Leading zero omitted, Abs format (unit mm)*
G04 Created by KiCad (PCBNEW (6.0.1)) date 2022-03-02 01:05:40*
%MOMM*%
%LPD*%
G01*
G04 APERTURE LIST*
G04 Aperture macros list*
%AMRoundRect*
0 Rectangle with rounded corners*
0 $1 Rounding radius*
0 $2 $3 $4 $5 $6 $7 $8 $9 X,Y pos of 4 corners*
0 Add a 4 corners polygon primitive as box body*
4,1,4,$2,$3,$4,$5,$6,$7,$8,$9,$2,$3,0*
0 Add four circle primitives for the rounded corners*
1,1,$1+$1,$2,$3*
1,1,$1+$1,$4,$5*
1,1,$1+$1,$6,$7*
1,1,$1+$1,$8,$9*
0 Add four rect primitives between the rounded corners*
20,1,$1+$1,$2,$3,$4,$5,0*
20,1,$1+$1,$4,$5,$6,$7,0*
20,1,$1+$1,$6,$7,$8,$9,0*
20,1,$1+$1,$8,$9,$2,$3,0*%
G04 Aperture macros list end*
%ADD10C,0.150000*%
%ADD11C,0.254000*%
%ADD12C,0.120000*%
%ADD13C,0.200000*%
%ADD14C,0.152400*%
%ADD15C,0.100000*%
%ADD16C,5.000000*%
%ADD17RoundRect,0.250000X-0.650000X0.412500X-0.650000X-0.412500X0.650000X-0.412500X0.650000X0.412500X0*%
%ADD18R,1.050000X0.900000*%
%ADD19R,0.457200X1.371600*%
%ADD20RoundRect,0.250000X-0.412500X-0.650000X0.412500X-0.650000X0.412500X0.650000X-0.412500X0.650000X0*%
%ADD21C,1.150000*%
%ADD22C,1.650000*%
%ADD23R,1.550000X0.300000*%
%ADD24R,2.750000X1.200000*%
%ADD25C,0.650000*%
%ADD26R,1.150000X0.300000*%
%ADD27R,2.000000X2.180000*%
%ADD28RoundRect,0.250000X-0.400000X-0.625000X0.400000X-0.625000X0.400000X0.625000X-0.400000X0.625000X0*%
G04 APERTURE END LIST*
D10*
%TO.C,H1*%
X222210250Y-51330224D02*
X222210250Y-50330224D01*
X222210250Y-50806415D02*
X222781678Y-50806415D01*
X222781678Y-51330224D02*
X222781678Y-50330224D01*
X223781678Y-51330224D02*
X223210250Y-51330224D01*
X223495964Y-51330224D02*
X223495964Y-50330224D01*
X223400726Y-50473082D01*
X223305488Y-50568320D01*
X223210250Y-50615939D01*
%TO.C,C3*%
X231079297Y-53382010D02*
X231126916Y-53429629D01*
X231174535Y-53572486D01*
X231174535Y-53667724D01*
X231126916Y-53810582D01*
X231031678Y-53905820D01*
X230936440Y-53953439D01*
X230745964Y-54001058D01*
X230603107Y-54001058D01*
X230412631Y-53953439D01*
X230317393Y-53905820D01*
X230222155Y-53810582D01*
X230174535Y-53667724D01*
X230174535Y-53572486D01*
X230222155Y-53429629D01*
X230269774Y-53382010D01*
X230174535Y-53048677D02*
X230174535Y-52429629D01*
X230555488Y-52762963D01*
X230555488Y-52620105D01*
X230603107Y-52524867D01*
X230650726Y-52477248D01*
X230745964Y-52429629D01*
X230984059Y-52429629D01*
X231079297Y-52477248D01*
X231126916Y-52524867D01*
X231174535Y-52620105D01*
X231174535Y-52905820D01*
X231126916Y-53001058D01*
X231079297Y-53048677D01*
D11*
%TO.C,D2*%
X236046678Y-64015224D02*
X234776678Y-64015224D01*
X234776678Y-63712844D01*
X234837155Y-63531415D01*
X234958107Y-63410463D01*
X235079059Y-63349986D01*
X235320964Y-63289510D01*
X235502393Y-63289510D01*
X235744297Y-63349986D01*
X235865250Y-63410463D01*
X235986202Y-63531415D01*
X236046678Y-63712844D01*
X236046678Y-64015224D01*
X234897631Y-62805701D02*
X234837155Y-62745224D01*
X234776678Y-62624272D01*
X234776678Y-62321891D01*
X234837155Y-62200939D01*
X234897631Y-62140463D01*
X235018583Y-62079986D01*
X235139535Y-62079986D01*
X235320964Y-62140463D01*
X236046678Y-62866177D01*
X236046678Y-62079986D01*
%TO.C,IC1*%
X235380278Y-47105605D02*
X234110278Y-47105605D01*
X235259326Y-45775129D02*
X235319802Y-45835605D01*
X235380278Y-46017034D01*
X235380278Y-46137986D01*
X235319802Y-46319415D01*
X235198850Y-46440367D01*
X235077897Y-46500844D01*
X234835993Y-46561320D01*
X234654564Y-46561320D01*
X234412659Y-46500844D01*
X234291707Y-46440367D01*
X234170755Y-46319415D01*
X234110278Y-46137986D01*
X234110278Y-46017034D01*
X234170755Y-45835605D01*
X234231231Y-45775129D01*
X235380278Y-44565605D02*
X235380278Y-45291320D01*
X235380278Y-44928463D02*
X234110278Y-44928463D01*
X234291707Y-45049415D01*
X234412659Y-45170367D01*
X234473135Y-45291320D01*
D10*
%TO.C,C1*%
X242505488Y-45234986D02*
X242457869Y-45282605D01*
X242315012Y-45330224D01*
X242219774Y-45330224D01*
X242076916Y-45282605D01*
X241981678Y-45187367D01*
X241934059Y-45092129D01*
X241886440Y-44901653D01*
X241886440Y-44758796D01*
X241934059Y-44568320D01*
X241981678Y-44473082D01*
X242076916Y-44377844D01*
X242219774Y-44330224D01*
X242315012Y-44330224D01*
X242457869Y-44377844D01*
X242505488Y-44425463D01*
X243457869Y-45330224D02*
X242886440Y-45330224D01*
X243172155Y-45330224D02*
X243172155Y-44330224D01*
X243076916Y-44473082D01*
X242981678Y-44568320D01*
X242886440Y-44615939D01*
D11*
%TO.C,J2*%
X192686678Y-55791177D02*
X193593821Y-55791177D01*
X193775250Y-55851653D01*
X193896202Y-55972605D01*
X193956678Y-56154034D01*
X193956678Y-56274986D01*
X192807631Y-55246891D02*
X192747155Y-55186415D01*
X192686678Y-55065463D01*
X192686678Y-54763082D01*
X192747155Y-54642129D01*
X192807631Y-54581653D01*
X192928583Y-54521177D01*
X193049535Y-54521177D01*
X193230964Y-54581653D01*
X193956678Y-55307367D01*
X193956678Y-54521177D01*
D10*
%TO.C,C2*%
X228979297Y-47382010D02*
X229026916Y-47429629D01*
X229074535Y-47572486D01*
X229074535Y-47667724D01*
X229026916Y-47810582D01*
X228931678Y-47905820D01*
X228836440Y-47953439D01*
X228645964Y-48001058D01*
X228503107Y-48001058D01*
X228312631Y-47953439D01*
X228217393Y-47905820D01*
X228122155Y-47810582D01*
X228074535Y-47667724D01*
X228074535Y-47572486D01*
X228122155Y-47429629D01*
X228169774Y-47382010D01*
X228169774Y-47001058D02*
X228122155Y-46953439D01*
X228074535Y-46858201D01*
X228074535Y-46620105D01*
X228122155Y-46524867D01*
X228169774Y-46477248D01*
X228265012Y-46429629D01*
X228360250Y-46429629D01*
X228503107Y-46477248D01*
X229074535Y-47048677D01*
X229074535Y-46429629D01*
D11*
%TO.C,D1*%
X240046678Y-51215224D02*
X238776678Y-51215224D01*
X238776678Y-50912844D01*
X238837155Y-50731415D01*
X238958107Y-50610463D01*
X239079059Y-50549986D01*
X239320964Y-50489510D01*
X239502393Y-50489510D01*
X239744297Y-50549986D01*
X239865250Y-50610463D01*
X239986202Y-50731415D01*
X240046678Y-50912844D01*
X240046678Y-51215224D01*
X240046678Y-49279986D02*
X240046678Y-50005701D01*
X240046678Y-49642844D02*
X238776678Y-49642844D01*
X238958107Y-49763796D01*
X239079059Y-49884748D01*
X239139535Y-50005701D01*
%TO.C,D3*%
X236146678Y-59015224D02*
X234876678Y-59015224D01*
X234876678Y-58712844D01*
X234937155Y-58531415D01*
X235058107Y-58410463D01*
X235179059Y-58349986D01*
X235420964Y-58289510D01*
X235602393Y-58289510D01*
X235844297Y-58349986D01*
X235965250Y-58410463D01*
X236086202Y-58531415D01*
X236146678Y-58712844D01*
X236146678Y-59015224D01*
X234876678Y-57866177D02*
X234876678Y-57079986D01*
X235360488Y-57503320D01*
X235360488Y-57321891D01*
X235420964Y-57200939D01*
X235481440Y-57140463D01*
X235602393Y-57079986D01*
X235904774Y-57079986D01*
X236025726Y-57140463D01*
X236086202Y-57200939D01*
X236146678Y-57321891D01*
X236146678Y-57684748D01*
X236086202Y-57805701D01*
X236025726Y-57866177D01*
%TO.C,J1*%
X244877178Y-54701177D02*
X245784321Y-54701177D01*
X245965750Y-54761653D01*
X246086702Y-54882605D01*
X246147178Y-55064034D01*
X246147178Y-55184986D01*
X246147178Y-53431177D02*
X246147178Y-54156891D01*
X246147178Y-53794034D02*
X244877178Y-53794034D01*
X245058607Y-53914986D01*
X245179559Y-54035939D01*
X245240035Y-54156891D01*
D10*
%TO.C,R2*%
X227955488Y-57410224D02*
X227622155Y-56934034D01*
X227384059Y-57410224D02*
X227384059Y-56410224D01*
X227765012Y-56410224D01*
X227860250Y-56457844D01*
X227907869Y-56505463D01*
X227955488Y-56600701D01*
X227955488Y-56743558D01*
X227907869Y-56838796D01*
X227860250Y-56886415D01*
X227765012Y-56934034D01*
X227384059Y-56934034D01*
X228336440Y-56505463D02*
X228384059Y-56457844D01*
X228479297Y-56410224D01*
X228717393Y-56410224D01*
X228812631Y-56457844D01*
X228860250Y-56505463D01*
X228907869Y-56600701D01*
X228907869Y-56695939D01*
X228860250Y-56838796D01*
X228288821Y-57410224D01*
X228907869Y-57410224D01*
%TO.C,R1*%
X227855488Y-62310224D02*
X227522155Y-61834034D01*
X227284059Y-62310224D02*
X227284059Y-61310224D01*
X227665012Y-61310224D01*
X227760250Y-61357844D01*
X227807869Y-61405463D01*
X227855488Y-61500701D01*
X227855488Y-61643558D01*
X227807869Y-61738796D01*
X227760250Y-61786415D01*
X227665012Y-61834034D01*
X227284059Y-61834034D01*
X228807869Y-62310224D02*
X228236440Y-62310224D01*
X228522155Y-62310224D02*
X228522155Y-61310224D01*
X228426916Y-61453082D01*
X228331678Y-61548320D01*
X228236440Y-61595939D01*
D12*
%TO.C,C3*%
X227962155Y-52504092D02*
X227962155Y-53926596D01*
X229782155Y-52504092D02*
X229782155Y-53926596D01*
D13*
%TO.C,D2*%
X233897155Y-63077844D02*
X233247155Y-63077844D01*
D14*
%TO.C,IC1*%
X234500955Y-52139644D02*
X234500955Y-51072844D01*
X234500955Y-50463244D02*
X234500955Y-49396444D01*
X231503755Y-49396444D02*
X231503755Y-52139644D01*
X234500955Y-51072844D02*
X234500955Y-50463244D01*
D12*
%TO.C,C1*%
X238123403Y-45887844D02*
X239545907Y-45887844D01*
X238123403Y-44067844D02*
X239545907Y-44067844D01*
D15*
%TO.C,J2*%
X188733155Y-64667844D02*
X188733155Y-64667844D01*
X189757155Y-58367844D02*
X189757155Y-57367844D01*
X192532155Y-44417844D02*
X197307155Y-44417844D01*
X197307155Y-66317844D02*
X197307155Y-64867844D01*
X197307155Y-58867844D02*
X197307155Y-57367844D01*
X192532155Y-66317844D02*
X197307155Y-66317844D01*
X197307155Y-44417844D02*
X197307155Y-45867844D01*
X188733155Y-64567844D02*
X188733155Y-64567844D01*
X188733155Y-64667844D02*
G75*
G03*
X188732155Y-64567844I-500J50000D01*
G01*
X188733155Y-64567844D02*
G75*
G03*
X188732155Y-64667844I-500J-50000D01*
G01*
D12*
%TO.C,C2*%
X227682155Y-46504092D02*
X227682155Y-47926596D01*
X225862155Y-46504092D02*
X225862155Y-47926596D01*
D13*
%TO.C,D1*%
X237997155Y-50277844D02*
X237347155Y-50277844D01*
%TO.C,D3*%
X233147155Y-58077844D02*
X233797155Y-58077844D01*
D15*
%TO.C,J1*%
X244358655Y-49807844D02*
X245358655Y-49807844D01*
X249785655Y-49807844D02*
X249785655Y-58747844D01*
D13*
X241408655Y-57577844D02*
X241408655Y-57577844D01*
D15*
X245358655Y-49807844D02*
X245358655Y-49807844D01*
X249785655Y-58747844D02*
X249785655Y-58747844D01*
X244358655Y-49807844D02*
X244358655Y-49807844D01*
X249785655Y-49807844D02*
X249785655Y-49807844D01*
X249785655Y-49807844D02*
X248358655Y-49807844D01*
X244608655Y-58747844D02*
X244608655Y-58777844D01*
X248608655Y-58747844D02*
X248608655Y-58747844D01*
X249785655Y-58747844D02*
X249785655Y-58747844D01*
X249785655Y-58747844D02*
X249785655Y-49807844D01*
X248358655Y-49807844D02*
X249785655Y-49807844D01*
X245358655Y-58747844D02*
X244608655Y-58747844D01*
D13*
X241408655Y-57677844D02*
X241408655Y-57677844D01*
D15*
X245358655Y-58777844D02*
X245358655Y-58747844D01*
X245358655Y-49807844D02*
X244358655Y-49807844D01*
D13*
X241408655Y-57677844D02*
X241408655Y-57677844D01*
D15*
X244608655Y-58777844D02*
X245358655Y-58777844D01*
X248358655Y-49807844D02*
X248358655Y-49807844D01*
X248608655Y-58747844D02*
X249785655Y-58747844D01*
X249785655Y-58747844D02*
X248608655Y-58747844D01*
X249785655Y-49807844D02*
X249785655Y-49807844D01*
D13*
X241408655Y-57677844D02*
G75*
G03*
X241408655Y-57577844I0J50000D01*
G01*
X241408655Y-57677844D02*
G75*
G03*
X241408655Y-57577844I0J50000D01*
G01*
X241408655Y-57577844D02*
G75*
G03*
X241408655Y-57677844I0J-50000D01*
G01*
D12*
%TO.C,R2*%
X227395091Y-59687844D02*
X228849219Y-59687844D01*
X227395091Y-57867844D02*
X228849219Y-57867844D01*
%TO.C,R1*%
X227295091Y-62767844D02*
X228749219Y-62767844D01*
X227295091Y-64587844D02*
X228749219Y-64587844D01*
%TD*%
%LPC*%
D16*
%TO.C,H1*%
X222972155Y-54377844D03*
%TD*%
D17*
%TO.C,C3*%
X228872155Y-51652844D03*
X228872155Y-54777844D03*
%TD*%
D18*
%TO.C,D2*%
X233572155Y-62277844D03*
X233572155Y-63877844D03*
%TD*%
D19*
%TO.C,IC1*%
X233967555Y-48558244D03*
X233332555Y-48558244D03*
X232672155Y-48558244D03*
X232037155Y-48558244D03*
X232037155Y-52977844D03*
X232672155Y-52977844D03*
X233332555Y-52977844D03*
X233967555Y-52977844D03*
%TD*%
D20*
%TO.C,C1*%
X237272155Y-44977844D03*
X240397155Y-44977844D03*
%TD*%
D21*
%TO.C,J2*%
X195032155Y-65367844D03*
D22*
X195032155Y-45367844D03*
D23*
X189757155Y-64617844D03*
X197307155Y-64367844D03*
X189757155Y-64117844D03*
X197307155Y-63867844D03*
X189757155Y-63617844D03*
X197307155Y-63367844D03*
X189757155Y-63117844D03*
X197307155Y-62867844D03*
X189757155Y-62617844D03*
X197307155Y-62367844D03*
X189757155Y-62117844D03*
X197307155Y-61867844D03*
X189757155Y-61617844D03*
X197307155Y-61367844D03*
X189757155Y-61117844D03*
X197307155Y-60867844D03*
X189757155Y-60617844D03*
X197307155Y-60367844D03*
X189757155Y-60117844D03*
X197307155Y-59867844D03*
X189757155Y-59617844D03*
X197307155Y-59367844D03*
X189757155Y-59117844D03*
X197307155Y-56867844D03*
X189757155Y-56617844D03*
X197307155Y-56367844D03*
X189757155Y-56117844D03*
X197307155Y-55867844D03*
X189757155Y-55617844D03*
X197307155Y-55367844D03*
X189757155Y-55117844D03*
X197307155Y-54867844D03*
X189757155Y-54617844D03*
X197307155Y-54367844D03*
X189757155Y-54117844D03*
X197307155Y-53867844D03*
X189757155Y-53617844D03*
X197307155Y-53367844D03*
X189757155Y-53117844D03*
X197307155Y-52867844D03*
X189757155Y-52617844D03*
X197307155Y-52367844D03*
X189757155Y-52117844D03*
X197307155Y-51867844D03*
X189757155Y-51617844D03*
X197307155Y-51367844D03*
X189757155Y-51117844D03*
X197307155Y-50867844D03*
X189757155Y-50617844D03*
X197307155Y-50367844D03*
X189757155Y-50117844D03*
X197307155Y-49867844D03*
X189757155Y-49617844D03*
X197307155Y-49367844D03*
X189757155Y-49117844D03*
X197307155Y-48867844D03*
X189757155Y-48617844D03*
X197307155Y-48367844D03*
X189757155Y-48117844D03*
X197307155Y-47867844D03*
X189757155Y-47617844D03*
X197307155Y-47367844D03*
X189757155Y-47117844D03*
X197307155Y-46867844D03*
X189757155Y-46617844D03*
X197307155Y-46367844D03*
X189757155Y-46117844D03*
D24*
X190532155Y-65717844D03*
X190532155Y-45017844D03*
%TD*%
D17*
%TO.C,C2*%
X226772155Y-45652844D03*
X226772155Y-48777844D03*
%TD*%
D18*
%TO.C,D1*%
X237672155Y-49477844D03*
X237672155Y-51077844D03*
%TD*%
%TO.C,D3*%
X233472155Y-58877844D03*
X233472155Y-57277844D03*
%TD*%
D25*
%TO.C,J1*%
X243505655Y-51387844D03*
X243505655Y-57167844D03*
D26*
X242430655Y-57627844D03*
X242430655Y-56827844D03*
X242430655Y-55527844D03*
X242430655Y-54527844D03*
X242430655Y-54027844D03*
X242430655Y-53027844D03*
X242430655Y-51727844D03*
X242430655Y-50927844D03*
X242430655Y-51227844D03*
X242430655Y-52027844D03*
X242430655Y-52527844D03*
X242430655Y-53527844D03*
X242430655Y-55027844D03*
X242430655Y-56027844D03*
X242430655Y-56527844D03*
X242430655Y-57327844D03*
D27*
X246935655Y-59387844D03*
X246935655Y-49167844D03*
X243005655Y-59387844D03*
X243005655Y-49167844D03*
%TD*%
D28*
%TO.C,R2*%
X226572155Y-58777844D03*
X229672155Y-58777844D03*
%TD*%
%TO.C,R1*%
X226472155Y-63677844D03*
X229572155Y-63677844D03*
%TD*%
M02*
