%TF.GenerationSoftware,KiCad,Pcbnew,(6.0.1)*%
%TF.CreationDate,2022-03-02T01:05:38-06:00*%
%TF.ProjectId,m2-USBC-Adapter-Rev2,6d322d55-5342-4432-9d41-646170746572,rev?*%
%TF.SameCoordinates,Original*%
%TF.FileFunction,Copper,L2,Bot*%
%TF.FilePolarity,Positive*%
%FSLAX46Y46*%
G04 Gerber Fmt 4.6, Leading zero omitted, Abs format (unit mm)*
G04 Created by KiCad (PCBNEW (6.0.1)) date 2022-03-02 01:05:38*
%MOMM*%
%LPD*%
G01*
G04 APERTURE LIST*
%TA.AperFunction,ComponentPad*%
%ADD10C,5.000000*%
%TD*%
%TA.AperFunction,ViaPad*%
%ADD11C,0.800000*%
%TD*%
%TA.AperFunction,Conductor*%
%ADD12C,0.254000*%
%TD*%
G04 APERTURE END LIST*
D10*
%TO.P,H1,1,1*%
%TO.N,GND*%
X222972155Y-54377844D03*
%TD*%
D11*
%TO.N,GND*%
X227150000Y-61200000D03*
X202250000Y-54400000D03*
X246935655Y-54114345D03*
X242250000Y-46900000D03*
X223150000Y-44600000D03*
X211150000Y-49200000D03*
X239350000Y-59700000D03*
X211350000Y-61600000D03*
%TD*%
D12*
%TO.N,GND*%
X218572156Y-54377844D02*
X211350000Y-61600000D01*
X222972155Y-44777845D02*
X223150000Y-44600000D01*
X222972155Y-54377844D02*
X222972155Y-44777845D01*
X222972155Y-54377844D02*
X218572156Y-54377844D01*
X234027844Y-54377844D02*
X239350000Y-59700000D01*
X222972155Y-54377844D02*
X227150000Y-58555689D01*
X216327844Y-54377844D02*
X211150000Y-49200000D01*
X227150000Y-58555689D02*
X227150000Y-61200000D01*
X222972155Y-54377844D02*
X216327844Y-54377844D01*
X222972155Y-54377844D02*
X202172156Y-54377844D01*
X222972155Y-54377844D02*
X234027844Y-54377844D01*
%TD*%
%TA.AperFunction,Conductor*%
%TO.N,GND*%
G36*
X243800342Y-42807419D02*
G01*
X243868442Y-42827493D01*
X243914878Y-42881198D01*
X243919522Y-42892917D01*
X244005697Y-43146778D01*
X244007518Y-43150471D01*
X244007519Y-43150473D01*
X244038416Y-43213125D01*
X244133713Y-43406369D01*
X244294517Y-43647030D01*
X244297231Y-43650124D01*
X244297235Y-43650130D01*
X244482649Y-43861553D01*
X244485358Y-43864642D01*
X244488447Y-43867351D01*
X244699870Y-44052765D01*
X244699876Y-44052769D01*
X244702970Y-44055483D01*
X244943631Y-44216287D01*
X244947330Y-44218111D01*
X244947335Y-44218114D01*
X245199527Y-44342481D01*
X245203222Y-44344303D01*
X245207120Y-44345626D01*
X245207122Y-44345627D01*
X245473391Y-44436014D01*
X245473395Y-44436015D01*
X245477301Y-44437341D01*
X245481345Y-44438145D01*
X245481351Y-44438147D01*
X245757137Y-44493004D01*
X245757140Y-44493004D01*
X245761180Y-44493808D01*
X245765291Y-44494077D01*
X245765295Y-44494078D01*
X246019593Y-44510745D01*
X246037566Y-44511923D01*
X246045881Y-44512468D01*
X246050000Y-44512738D01*
X246054119Y-44512468D01*
X246062435Y-44511923D01*
X246080407Y-44510745D01*
X246334705Y-44494078D01*
X246334709Y-44494077D01*
X246338820Y-44493808D01*
X246342860Y-44493004D01*
X246342863Y-44493004D01*
X246618649Y-44438147D01*
X246618655Y-44438145D01*
X246622699Y-44437341D01*
X246626605Y-44436015D01*
X246626609Y-44436014D01*
X246892878Y-44345627D01*
X246892880Y-44345626D01*
X246896778Y-44344303D01*
X246900473Y-44342481D01*
X247152665Y-44218114D01*
X247152670Y-44218111D01*
X247156369Y-44216287D01*
X247397030Y-44055483D01*
X247400124Y-44052769D01*
X247400130Y-44052765D01*
X247611553Y-43867351D01*
X247614642Y-43864642D01*
X247617351Y-43861553D01*
X247802765Y-43650130D01*
X247802769Y-43650124D01*
X247805483Y-43647030D01*
X247966287Y-43406369D01*
X248061585Y-43213125D01*
X248092481Y-43150473D01*
X248092482Y-43150471D01*
X248094303Y-43146778D01*
X248095627Y-43142878D01*
X248095629Y-43142874D01*
X248181452Y-42890047D01*
X248222289Y-42831970D01*
X248288042Y-42805192D01*
X248299972Y-42804550D01*
X250637362Y-42789847D01*
X250705608Y-42809421D01*
X250752437Y-42862783D01*
X250764155Y-42915845D01*
X250764155Y-67747935D01*
X250744153Y-67816056D01*
X250690497Y-67862549D01*
X250638971Y-67873932D01*
X248399200Y-67888433D01*
X248330951Y-67868873D01*
X248284112Y-67815519D01*
X248279071Y-67802938D01*
X248195627Y-67557122D01*
X248195626Y-67557120D01*
X248194303Y-67553222D01*
X248192481Y-67549527D01*
X248068114Y-67297335D01*
X248068111Y-67297330D01*
X248066287Y-67293631D01*
X247905483Y-67052970D01*
X247902769Y-67049876D01*
X247902765Y-67049870D01*
X247717351Y-66838447D01*
X247714642Y-66835358D01*
X247711553Y-66832649D01*
X247500130Y-66647235D01*
X247500124Y-66647231D01*
X247497030Y-66644517D01*
X247256369Y-66483713D01*
X247252670Y-66481889D01*
X247252665Y-66481886D01*
X247000473Y-66357519D01*
X247000471Y-66357518D01*
X246996778Y-66355697D01*
X246939964Y-66336411D01*
X246726609Y-66263986D01*
X246726605Y-66263985D01*
X246722699Y-66262659D01*
X246718655Y-66261855D01*
X246718649Y-66261853D01*
X246442863Y-66206996D01*
X246442860Y-66206996D01*
X246438820Y-66206192D01*
X246434709Y-66205923D01*
X246434705Y-66205922D01*
X246154119Y-66187532D01*
X246150000Y-66187262D01*
X246145881Y-66187532D01*
X245865295Y-66205922D01*
X245865291Y-66205923D01*
X245861180Y-66206192D01*
X245857140Y-66206996D01*
X245857137Y-66206996D01*
X245581351Y-66261853D01*
X245581345Y-66261855D01*
X245577301Y-66262659D01*
X245573395Y-66263985D01*
X245573391Y-66263986D01*
X245360036Y-66336411D01*
X245303222Y-66355697D01*
X245299529Y-66357518D01*
X245299527Y-66357519D01*
X245047335Y-66481886D01*
X245047330Y-66481889D01*
X245043631Y-66483713D01*
X244802970Y-66644517D01*
X244799876Y-66647231D01*
X244799870Y-66647235D01*
X244588447Y-66832649D01*
X244585358Y-66835358D01*
X244582649Y-66838447D01*
X244397235Y-67049870D01*
X244397231Y-67049876D01*
X244394517Y-67052970D01*
X244233713Y-67293631D01*
X244231889Y-67297330D01*
X244231886Y-67297335D01*
X244107519Y-67549527D01*
X244105697Y-67553222D01*
X244104374Y-67557120D01*
X244104373Y-67557122D01*
X244019792Y-67806287D01*
X243978955Y-67864363D01*
X243913202Y-67891141D01*
X243900430Y-67891785D01*
X188106106Y-67870052D01*
X188037993Y-67850023D01*
X187991521Y-67796350D01*
X187980155Y-67744052D01*
X187980155Y-65314675D01*
X193945026Y-65314675D01*
X193954586Y-65521205D01*
X194003026Y-65722201D01*
X194088600Y-65910412D01*
X194208220Y-66079045D01*
X194212543Y-66083183D01*
X194212547Y-66083188D01*
X194340757Y-66205922D01*
X194357570Y-66222017D01*
X194362609Y-66225271D01*
X194362612Y-66225273D01*
X194453206Y-66283768D01*
X194531261Y-66334167D01*
X194536824Y-66336409D01*
X194536828Y-66336411D01*
X194717456Y-66409206D01*
X194717459Y-66409207D01*
X194723025Y-66411450D01*
X194823716Y-66431113D01*
X194921497Y-66450209D01*
X194921500Y-66450209D01*
X194925943Y-66451077D01*
X194931402Y-66451344D01*
X195083806Y-66451344D01*
X195237972Y-66436635D01*
X195436362Y-66378434D01*
X195480509Y-66355697D01*
X195614837Y-66286514D01*
X195614840Y-66286512D01*
X195620168Y-66283768D01*
X195782756Y-66156053D01*
X195918261Y-65999897D01*
X196021793Y-65820936D01*
X196089616Y-65625625D01*
X196119284Y-65421013D01*
X196109724Y-65214483D01*
X196061284Y-65013487D01*
X195975710Y-64825276D01*
X195856090Y-64656643D01*
X195851767Y-64652505D01*
X195851763Y-64652500D01*
X195711073Y-64517819D01*
X195706740Y-64513671D01*
X195701701Y-64510417D01*
X195701698Y-64510415D01*
X195538090Y-64404776D01*
X195538091Y-64404776D01*
X195533049Y-64401521D01*
X195527486Y-64399279D01*
X195527482Y-64399277D01*
X195346854Y-64326482D01*
X195346851Y-64326481D01*
X195341285Y-64324238D01*
X195220969Y-64300742D01*
X195142813Y-64285479D01*
X195142810Y-64285479D01*
X195138367Y-64284611D01*
X195132908Y-64284344D01*
X194980504Y-64284344D01*
X194826338Y-64299053D01*
X194627948Y-64357254D01*
X194622621Y-64359998D01*
X194622620Y-64359998D01*
X194449473Y-64449174D01*
X194449470Y-64449176D01*
X194444142Y-64451920D01*
X194281554Y-64579635D01*
X194146049Y-64735791D01*
X194042517Y-64914752D01*
X193974694Y-65110063D01*
X193973833Y-65115998D01*
X193973833Y-65116000D01*
X193960399Y-65208655D01*
X193945026Y-65314675D01*
X187980155Y-65314675D01*
X187980155Y-56679525D01*
X221036015Y-56679525D01*
X221036033Y-56679777D01*
X221041948Y-56688521D01*
X221073266Y-56717018D01*
X221078903Y-56721582D01*
X221354699Y-56919762D01*
X221360837Y-56923657D01*
X221657590Y-57088828D01*
X221664110Y-57091980D01*
X221977893Y-57221953D01*
X221984744Y-57224339D01*
X222311367Y-57317380D01*
X222318456Y-57318964D01*
X222653620Y-57373850D01*
X222660826Y-57374607D01*
X223000081Y-57390606D01*
X223007331Y-57390530D01*
X223346165Y-57367431D01*
X223353374Y-57366520D01*
X223687315Y-57304628D01*
X223694345Y-57302901D01*
X224018974Y-57203031D01*
X224025752Y-57200511D01*
X224206788Y-57121042D01*
X242668547Y-57121042D01*
X242668904Y-57127859D01*
X242668904Y-57127863D01*
X242676716Y-57276916D01*
X242678025Y-57301891D01*
X242679836Y-57308464D01*
X242679836Y-57308467D01*
X242702440Y-57390530D01*
X242726116Y-57476485D01*
X242810577Y-57636680D01*
X242814982Y-57641893D01*
X242814985Y-57641897D01*
X242923061Y-57769787D01*
X242923065Y-57769791D01*
X242927468Y-57775001D01*
X242932892Y-57779148D01*
X242932893Y-57779149D01*
X243065912Y-57880850D01*
X243065916Y-57880853D01*
X243071333Y-57884994D01*
X243158027Y-57925420D01*
X243229286Y-57958649D01*
X243229289Y-57958650D01*
X243235463Y-57961529D01*
X243242111Y-57963015D01*
X243242114Y-57963016D01*
X243348076Y-57986701D01*
X243412198Y-58001034D01*
X243417743Y-58001344D01*
X243550899Y-58001344D01*
X243685692Y-57986701D01*
X243803845Y-57946938D01*
X243850859Y-57931116D01*
X243850861Y-57931115D01*
X243857330Y-57928938D01*
X244012560Y-57835667D01*
X244017517Y-57830979D01*
X244017520Y-57830977D01*
X244139182Y-57715926D01*
X244139184Y-57715924D01*
X244144140Y-57711237D01*
X244147972Y-57705599D01*
X244147975Y-57705595D01*
X244242097Y-57567099D01*
X244245932Y-57561456D01*
X244313185Y-57393310D01*
X244314299Y-57386582D01*
X244314300Y-57386578D01*
X244341648Y-57221383D01*
X244341648Y-57221380D01*
X244342763Y-57214646D01*
X244342155Y-57203031D01*
X244333642Y-57040610D01*
X244333285Y-57033797D01*
X244309959Y-56949110D01*
X244287007Y-56865785D01*
X244285194Y-56859203D01*
X244200733Y-56699008D01*
X244196328Y-56693795D01*
X244196325Y-56693791D01*
X244088249Y-56565901D01*
X244088245Y-56565897D01*
X244083842Y-56560687D01*
X244078417Y-56556539D01*
X243945398Y-56454838D01*
X243945394Y-56454835D01*
X243939977Y-56450694D01*
X243834841Y-56401669D01*
X243782024Y-56377039D01*
X243782021Y-56377038D01*
X243775847Y-56374159D01*
X243769199Y-56372673D01*
X243769196Y-56372672D01*
X243604149Y-56335780D01*
X243604150Y-56335780D01*
X243599112Y-56334654D01*
X243593567Y-56334344D01*
X243460411Y-56334344D01*
X243325618Y-56348987D01*
X243242264Y-56377039D01*
X243160451Y-56404572D01*
X243160449Y-56404573D01*
X243153980Y-56406750D01*
X242998750Y-56500021D01*
X242993793Y-56504709D01*
X242993790Y-56504711D01*
X242938984Y-56556539D01*
X242867170Y-56624451D01*
X242863338Y-56630089D01*
X242863335Y-56630093D01*
X242812395Y-56705049D01*
X242765378Y-56774232D01*
X242698125Y-56942378D01*
X242697011Y-56949106D01*
X242697010Y-56949110D01*
X242678535Y-57060708D01*
X242668547Y-57121042D01*
X224206788Y-57121042D01*
X224336758Y-57063989D01*
X224343198Y-57060708D01*
X224636448Y-56889346D01*
X224642481Y-56885337D01*
X224900983Y-56691249D01*
X224909437Y-56679922D01*
X224902692Y-56667592D01*
X222984965Y-54749864D01*
X222971024Y-54742252D01*
X222969189Y-54742383D01*
X222962575Y-54746634D01*
X221043629Y-56665581D01*
X221036015Y-56679525D01*
X187980155Y-56679525D01*
X187980155Y-54286831D01*
X219960639Y-54286831D01*
X219969529Y-54626349D01*
X219970135Y-54633565D01*
X220017990Y-54969807D01*
X220019424Y-54976918D01*
X220105610Y-55305439D01*
X220107847Y-55312322D01*
X220231219Y-55628758D01*
X220234236Y-55635347D01*
X220393157Y-55935496D01*
X220396916Y-55941704D01*
X220589284Y-56221601D01*
X220593729Y-56227330D01*
X220660898Y-56304328D01*
X220674072Y-56312732D01*
X220683924Y-56306864D01*
X222600135Y-54390654D01*
X222606512Y-54378975D01*
X223336563Y-54378975D01*
X223336694Y-54380810D01*
X223340945Y-54387424D01*
X225258423Y-56304901D01*
X225271777Y-56312193D01*
X225281749Y-56305139D01*
X225388796Y-56177111D01*
X225393112Y-56171300D01*
X225579587Y-55887419D01*
X225583201Y-55881157D01*
X225735813Y-55577726D01*
X225738685Y-55571088D01*
X225855404Y-55252137D01*
X225857500Y-55245195D01*
X225936786Y-54914947D01*
X225938070Y-54907808D01*
X225978971Y-54569817D01*
X225979395Y-54564247D01*
X225985165Y-54380641D01*
X225985092Y-54375048D01*
X225965493Y-54035147D01*
X225964661Y-54027957D01*
X225906268Y-53693373D01*
X225904613Y-53686318D01*
X225808153Y-53360678D01*
X225805695Y-53353850D01*
X225672445Y-53041452D01*
X225669228Y-53034969D01*
X225500943Y-52739933D01*
X225497011Y-52733878D01*
X225295929Y-52460139D01*
X225291321Y-52454570D01*
X225285985Y-52448828D01*
X225272333Y-52440710D01*
X225271725Y-52440731D01*
X225263247Y-52445963D01*
X223344175Y-54365034D01*
X223336563Y-54378975D01*
X222606512Y-54378975D01*
X222607747Y-54376713D01*
X222607616Y-54374878D01*
X222603365Y-54368264D01*
X220684529Y-52449429D01*
X220671736Y-52442443D01*
X220660982Y-52450308D01*
X220500192Y-52655371D01*
X220496057Y-52661320D01*
X220318595Y-52950912D01*
X220315174Y-52957291D01*
X220172171Y-53265366D01*
X220169511Y-53272085D01*
X220062866Y-53594551D01*
X220060989Y-53601555D01*
X219992116Y-53934132D01*
X219991059Y-53941293D01*
X219960867Y-54279579D01*
X219960639Y-54286831D01*
X187980155Y-54286831D01*
X187980155Y-52078892D01*
X221037287Y-52078892D01*
X221043682Y-52090160D01*
X222959345Y-54005824D01*
X222973286Y-54013436D01*
X222975121Y-54013305D01*
X222981735Y-54009054D01*
X224899229Y-52091560D01*
X224906621Y-52078023D01*
X224899834Y-52068323D01*
X224796631Y-51980179D01*
X224790859Y-51975797D01*
X224508951Y-51786363D01*
X224502730Y-51782683D01*
X224200912Y-51626904D01*
X224194301Y-51623960D01*
X223876594Y-51503909D01*
X223869668Y-51501738D01*
X223540267Y-51418999D01*
X223533160Y-51417643D01*
X223196433Y-51373312D01*
X223189191Y-51372781D01*
X222849622Y-51367446D01*
X222842360Y-51367750D01*
X222504411Y-51401482D01*
X222497263Y-51402614D01*
X222165418Y-51474968D01*
X222158440Y-51476916D01*
X221837115Y-51586930D01*
X221830408Y-51589667D01*
X221523862Y-51735883D01*
X221517504Y-51739378D01*
X221229809Y-51919849D01*
X221223886Y-51924058D01*
X221045756Y-52066767D01*
X221037287Y-52078892D01*
X187980155Y-52078892D01*
X187980155Y-51341042D01*
X242668547Y-51341042D01*
X242668904Y-51347859D01*
X242668904Y-51347863D01*
X242673806Y-51441383D01*
X242678025Y-51521891D01*
X242679836Y-51528464D01*
X242679836Y-51528467D01*
X242703206Y-51613310D01*
X242726116Y-51696485D01*
X242810577Y-51856680D01*
X242814982Y-51861893D01*
X242814985Y-51861897D01*
X242923061Y-51989787D01*
X242923065Y-51989791D01*
X242927468Y-51995001D01*
X242932892Y-51999148D01*
X242932893Y-51999149D01*
X243065912Y-52100850D01*
X243065916Y-52100853D01*
X243071333Y-52104994D01*
X243158027Y-52145420D01*
X243229286Y-52178649D01*
X243229289Y-52178650D01*
X243235463Y-52181529D01*
X243242111Y-52183015D01*
X243242114Y-52183016D01*
X243348076Y-52206701D01*
X243412198Y-52221034D01*
X243417743Y-52221344D01*
X243550899Y-52221344D01*
X243685692Y-52206701D01*
X243803845Y-52166938D01*
X243850859Y-52151116D01*
X243850861Y-52151115D01*
X243857330Y-52148938D01*
X244012560Y-52055667D01*
X244017517Y-52050979D01*
X244017520Y-52050977D01*
X244139182Y-51935926D01*
X244139184Y-51935924D01*
X244144140Y-51931237D01*
X244147972Y-51925599D01*
X244147975Y-51925595D01*
X244242097Y-51787099D01*
X244245932Y-51781456D01*
X244313185Y-51613310D01*
X244314299Y-51606582D01*
X244314300Y-51606578D01*
X244341648Y-51441383D01*
X244341648Y-51441380D01*
X244342763Y-51434646D01*
X244341085Y-51402614D01*
X244333642Y-51260610D01*
X244333285Y-51253797D01*
X244309959Y-51169110D01*
X244287007Y-51085785D01*
X244285194Y-51079203D01*
X244200733Y-50919008D01*
X244196328Y-50913795D01*
X244196325Y-50913791D01*
X244088249Y-50785901D01*
X244088245Y-50785897D01*
X244083842Y-50780687D01*
X244078417Y-50776539D01*
X243945398Y-50674838D01*
X243945394Y-50674835D01*
X243939977Y-50670694D01*
X243834841Y-50621669D01*
X243782024Y-50597039D01*
X243782021Y-50597038D01*
X243775847Y-50594159D01*
X243769199Y-50592673D01*
X243769196Y-50592672D01*
X243604149Y-50555780D01*
X243604150Y-50555780D01*
X243599112Y-50554654D01*
X243593567Y-50554344D01*
X243460411Y-50554344D01*
X243325618Y-50568987D01*
X243242264Y-50597039D01*
X243160451Y-50624572D01*
X243160449Y-50624573D01*
X243153980Y-50626750D01*
X242998750Y-50720021D01*
X242993793Y-50724709D01*
X242993790Y-50724711D01*
X242938984Y-50776539D01*
X242867170Y-50844451D01*
X242863338Y-50850089D01*
X242863335Y-50850093D01*
X242812395Y-50925049D01*
X242765378Y-50994232D01*
X242698125Y-51162378D01*
X242697011Y-51169106D01*
X242697010Y-51169110D01*
X242669662Y-51334305D01*
X242668547Y-51341042D01*
X187980155Y-51341042D01*
X187980155Y-45367844D01*
X193693561Y-45367844D01*
X193713897Y-45600288D01*
X193774288Y-45825670D01*
X193776610Y-45830650D01*
X193776611Y-45830652D01*
X193870573Y-46032154D01*
X193870576Y-46032159D01*
X193872899Y-46037141D01*
X194006733Y-46228276D01*
X194171723Y-46393266D01*
X194176231Y-46396423D01*
X194176234Y-46396425D01*
X194358349Y-46523943D01*
X194362858Y-46527100D01*
X194367840Y-46529423D01*
X194367845Y-46529426D01*
X194569347Y-46623388D01*
X194574329Y-46625711D01*
X194579637Y-46627133D01*
X194579639Y-46627134D01*
X194650208Y-46646043D01*
X194799711Y-46686102D01*
X194891009Y-46694089D01*
X194971205Y-46701106D01*
X194971214Y-46701106D01*
X194973930Y-46701344D01*
X195090380Y-46701344D01*
X195093096Y-46701106D01*
X195093105Y-46701106D01*
X195173301Y-46694089D01*
X195264599Y-46686102D01*
X195414102Y-46646043D01*
X195484671Y-46627134D01*
X195484673Y-46627133D01*
X195489981Y-46625711D01*
X195494963Y-46623388D01*
X195696465Y-46529426D01*
X195696470Y-46529423D01*
X195701452Y-46527100D01*
X195705961Y-46523943D01*
X195888076Y-46396425D01*
X195888079Y-46396423D01*
X195892587Y-46393266D01*
X196057577Y-46228276D01*
X196191411Y-46037141D01*
X196193734Y-46032159D01*
X196193737Y-46032154D01*
X196287699Y-45830652D01*
X196287700Y-45830650D01*
X196290022Y-45825670D01*
X196350413Y-45600288D01*
X196370749Y-45367844D01*
X196350413Y-45135400D01*
X196290022Y-44910018D01*
X196287699Y-44905036D01*
X196193737Y-44703534D01*
X196193734Y-44703529D01*
X196191411Y-44698547D01*
X196188254Y-44694038D01*
X196060736Y-44511923D01*
X196060734Y-44511920D01*
X196057577Y-44507412D01*
X195892587Y-44342422D01*
X195888079Y-44339265D01*
X195888076Y-44339263D01*
X195705961Y-44211745D01*
X195705959Y-44211744D01*
X195701452Y-44208588D01*
X195696470Y-44206265D01*
X195696465Y-44206262D01*
X195494963Y-44112300D01*
X195494961Y-44112299D01*
X195489981Y-44109977D01*
X195484673Y-44108555D01*
X195484671Y-44108554D01*
X195414102Y-44089645D01*
X195264599Y-44049586D01*
X195173301Y-44041599D01*
X195093105Y-44034582D01*
X195093096Y-44034582D01*
X195090380Y-44034344D01*
X194973930Y-44034344D01*
X194971214Y-44034582D01*
X194971205Y-44034582D01*
X194891009Y-44041599D01*
X194799711Y-44049586D01*
X194650208Y-44089645D01*
X194579639Y-44108554D01*
X194579637Y-44108555D01*
X194574329Y-44109977D01*
X194569349Y-44112299D01*
X194569347Y-44112300D01*
X194367845Y-44206262D01*
X194367840Y-44206265D01*
X194362858Y-44208588D01*
X194358351Y-44211744D01*
X194358349Y-44211745D01*
X194176234Y-44339263D01*
X194176231Y-44339265D01*
X194171723Y-44342422D01*
X194006733Y-44507412D01*
X194003576Y-44511920D01*
X194003574Y-44511923D01*
X193876056Y-44694038D01*
X193872899Y-44698547D01*
X193870576Y-44703529D01*
X193870573Y-44703534D01*
X193776611Y-44905036D01*
X193774288Y-44910018D01*
X193713897Y-45135400D01*
X193693561Y-45367844D01*
X187980155Y-45367844D01*
X187980155Y-42911844D01*
X188000157Y-42843723D01*
X188053813Y-42797230D01*
X188106155Y-42785844D01*
X223371808Y-42785844D01*
X243800342Y-42807419D01*
G37*
%TD.AperFunction*%
%TD*%
%TA.AperFunction,Conductor*%
%TO.N,GND*%
G36*
X243800342Y-42807419D02*
G01*
X243868442Y-42827493D01*
X243914878Y-42881198D01*
X243919522Y-42892917D01*
X244005697Y-43146778D01*
X244007518Y-43150471D01*
X244007519Y-43150473D01*
X244038416Y-43213125D01*
X244133713Y-43406369D01*
X244294517Y-43647030D01*
X244297231Y-43650124D01*
X244297235Y-43650130D01*
X244482649Y-43861553D01*
X244485358Y-43864642D01*
X244488447Y-43867351D01*
X244699870Y-44052765D01*
X244699876Y-44052769D01*
X244702970Y-44055483D01*
X244943631Y-44216287D01*
X244947330Y-44218111D01*
X244947335Y-44218114D01*
X245199527Y-44342481D01*
X245203222Y-44344303D01*
X245207120Y-44345626D01*
X245207122Y-44345627D01*
X245473391Y-44436014D01*
X245473395Y-44436015D01*
X245477301Y-44437341D01*
X245481345Y-44438145D01*
X245481351Y-44438147D01*
X245757137Y-44493004D01*
X245757140Y-44493004D01*
X245761180Y-44493808D01*
X245765291Y-44494077D01*
X245765295Y-44494078D01*
X246019593Y-44510745D01*
X246037566Y-44511923D01*
X246045881Y-44512468D01*
X246050000Y-44512738D01*
X246054119Y-44512468D01*
X246062435Y-44511923D01*
X246080407Y-44510745D01*
X246334705Y-44494078D01*
X246334709Y-44494077D01*
X246338820Y-44493808D01*
X246342860Y-44493004D01*
X246342863Y-44493004D01*
X246618649Y-44438147D01*
X246618655Y-44438145D01*
X246622699Y-44437341D01*
X246626605Y-44436015D01*
X246626609Y-44436014D01*
X246892878Y-44345627D01*
X246892880Y-44345626D01*
X246896778Y-44344303D01*
X246900473Y-44342481D01*
X247152665Y-44218114D01*
X247152670Y-44218111D01*
X247156369Y-44216287D01*
X247397030Y-44055483D01*
X247400124Y-44052769D01*
X247400130Y-44052765D01*
X247611553Y-43867351D01*
X247614642Y-43864642D01*
X247617351Y-43861553D01*
X247802765Y-43650130D01*
X247802769Y-43650124D01*
X247805483Y-43647030D01*
X247966287Y-43406369D01*
X248061585Y-43213125D01*
X248092481Y-43150473D01*
X248092482Y-43150471D01*
X248094303Y-43146778D01*
X248095627Y-43142878D01*
X248095629Y-43142874D01*
X248181452Y-42890047D01*
X248222289Y-42831970D01*
X248288042Y-42805192D01*
X248299972Y-42804550D01*
X250637362Y-42789847D01*
X250705608Y-42809421D01*
X250752437Y-42862783D01*
X250764155Y-42915845D01*
X250764155Y-67747935D01*
X250744153Y-67816056D01*
X250690497Y-67862549D01*
X250638971Y-67873932D01*
X248399200Y-67888433D01*
X248330951Y-67868873D01*
X248284112Y-67815519D01*
X248279071Y-67802938D01*
X248195627Y-67557122D01*
X248195626Y-67557120D01*
X248194303Y-67553222D01*
X248192481Y-67549527D01*
X248068114Y-67297335D01*
X248068111Y-67297330D01*
X248066287Y-67293631D01*
X247905483Y-67052970D01*
X247902769Y-67049876D01*
X247902765Y-67049870D01*
X247717351Y-66838447D01*
X247714642Y-66835358D01*
X247711553Y-66832649D01*
X247500130Y-66647235D01*
X247500124Y-66647231D01*
X247497030Y-66644517D01*
X247256369Y-66483713D01*
X247252670Y-66481889D01*
X247252665Y-66481886D01*
X247000473Y-66357519D01*
X247000471Y-66357518D01*
X246996778Y-66355697D01*
X246939964Y-66336411D01*
X246726609Y-66263986D01*
X246726605Y-66263985D01*
X246722699Y-66262659D01*
X246718655Y-66261855D01*
X246718649Y-66261853D01*
X246442863Y-66206996D01*
X246442860Y-66206996D01*
X246438820Y-66206192D01*
X246434709Y-66205923D01*
X246434705Y-66205922D01*
X246154119Y-66187532D01*
X246150000Y-66187262D01*
X246145881Y-66187532D01*
X245865295Y-66205922D01*
X245865291Y-66205923D01*
X245861180Y-66206192D01*
X245857140Y-66206996D01*
X245857137Y-66206996D01*
X245581351Y-66261853D01*
X245581345Y-66261855D01*
X245577301Y-66262659D01*
X245573395Y-66263985D01*
X245573391Y-66263986D01*
X245360036Y-66336411D01*
X245303222Y-66355697D01*
X245299529Y-66357518D01*
X245299527Y-66357519D01*
X245047335Y-66481886D01*
X245047330Y-66481889D01*
X245043631Y-66483713D01*
X244802970Y-66644517D01*
X244799876Y-66647231D01*
X244799870Y-66647235D01*
X244588447Y-66832649D01*
X244585358Y-66835358D01*
X244582649Y-66838447D01*
X244397235Y-67049870D01*
X244397231Y-67049876D01*
X244394517Y-67052970D01*
X244233713Y-67293631D01*
X244231889Y-67297330D01*
X244231886Y-67297335D01*
X244107519Y-67549527D01*
X244105697Y-67553222D01*
X244104374Y-67557120D01*
X244104373Y-67557122D01*
X244019792Y-67806287D01*
X243978955Y-67864363D01*
X243913202Y-67891141D01*
X243900430Y-67891785D01*
X188106106Y-67870052D01*
X188037993Y-67850023D01*
X187991521Y-67796350D01*
X187980155Y-67744052D01*
X187980155Y-65314675D01*
X193945026Y-65314675D01*
X193954586Y-65521205D01*
X194003026Y-65722201D01*
X194088600Y-65910412D01*
X194208220Y-66079045D01*
X194212543Y-66083183D01*
X194212547Y-66083188D01*
X194340757Y-66205922D01*
X194357570Y-66222017D01*
X194362609Y-66225271D01*
X194362612Y-66225273D01*
X194453206Y-66283768D01*
X194531261Y-66334167D01*
X194536824Y-66336409D01*
X194536828Y-66336411D01*
X194717456Y-66409206D01*
X194717459Y-66409207D01*
X194723025Y-66411450D01*
X194823716Y-66431113D01*
X194921497Y-66450209D01*
X194921500Y-66450209D01*
X194925943Y-66451077D01*
X194931402Y-66451344D01*
X195083806Y-66451344D01*
X195237972Y-66436635D01*
X195436362Y-66378434D01*
X195480509Y-66355697D01*
X195614837Y-66286514D01*
X195614840Y-66286512D01*
X195620168Y-66283768D01*
X195782756Y-66156053D01*
X195918261Y-65999897D01*
X196021793Y-65820936D01*
X196089616Y-65625625D01*
X196119284Y-65421013D01*
X196109724Y-65214483D01*
X196061284Y-65013487D01*
X195975710Y-64825276D01*
X195856090Y-64656643D01*
X195851767Y-64652505D01*
X195851763Y-64652500D01*
X195711073Y-64517819D01*
X195706740Y-64513671D01*
X195701701Y-64510417D01*
X195701698Y-64510415D01*
X195538090Y-64404776D01*
X195538091Y-64404776D01*
X195533049Y-64401521D01*
X195527486Y-64399279D01*
X195527482Y-64399277D01*
X195346854Y-64326482D01*
X195346851Y-64326481D01*
X195341285Y-64324238D01*
X195220969Y-64300742D01*
X195142813Y-64285479D01*
X195142810Y-64285479D01*
X195138367Y-64284611D01*
X195132908Y-64284344D01*
X194980504Y-64284344D01*
X194826338Y-64299053D01*
X194627948Y-64357254D01*
X194622621Y-64359998D01*
X194622620Y-64359998D01*
X194449473Y-64449174D01*
X194449470Y-64449176D01*
X194444142Y-64451920D01*
X194281554Y-64579635D01*
X194146049Y-64735791D01*
X194042517Y-64914752D01*
X193974694Y-65110063D01*
X193973833Y-65115998D01*
X193973833Y-65116000D01*
X193960399Y-65208655D01*
X193945026Y-65314675D01*
X187980155Y-65314675D01*
X187980155Y-56679525D01*
X221036015Y-56679525D01*
X221036033Y-56679777D01*
X221041948Y-56688521D01*
X221073266Y-56717018D01*
X221078903Y-56721582D01*
X221354699Y-56919762D01*
X221360837Y-56923657D01*
X221657590Y-57088828D01*
X221664110Y-57091980D01*
X221977893Y-57221953D01*
X221984744Y-57224339D01*
X222311367Y-57317380D01*
X222318456Y-57318964D01*
X222653620Y-57373850D01*
X222660826Y-57374607D01*
X223000081Y-57390606D01*
X223007331Y-57390530D01*
X223346165Y-57367431D01*
X223353374Y-57366520D01*
X223687315Y-57304628D01*
X223694345Y-57302901D01*
X224018974Y-57203031D01*
X224025752Y-57200511D01*
X224206788Y-57121042D01*
X242668547Y-57121042D01*
X242668904Y-57127859D01*
X242668904Y-57127863D01*
X242676716Y-57276916D01*
X242678025Y-57301891D01*
X242679836Y-57308464D01*
X242679836Y-57308467D01*
X242702440Y-57390530D01*
X242726116Y-57476485D01*
X242810577Y-57636680D01*
X242814982Y-57641893D01*
X242814985Y-57641897D01*
X242923061Y-57769787D01*
X242923065Y-57769791D01*
X242927468Y-57775001D01*
X242932892Y-57779148D01*
X242932893Y-57779149D01*
X243065912Y-57880850D01*
X243065916Y-57880853D01*
X243071333Y-57884994D01*
X243158027Y-57925420D01*
X243229286Y-57958649D01*
X243229289Y-57958650D01*
X243235463Y-57961529D01*
X243242111Y-57963015D01*
X243242114Y-57963016D01*
X243348076Y-57986701D01*
X243412198Y-58001034D01*
X243417743Y-58001344D01*
X243550899Y-58001344D01*
X243685692Y-57986701D01*
X243803845Y-57946938D01*
X243850859Y-57931116D01*
X243850861Y-57931115D01*
X243857330Y-57928938D01*
X244012560Y-57835667D01*
X244017517Y-57830979D01*
X244017520Y-57830977D01*
X244139182Y-57715926D01*
X244139184Y-57715924D01*
X244144140Y-57711237D01*
X244147972Y-57705599D01*
X244147975Y-57705595D01*
X244242097Y-57567099D01*
X244245932Y-57561456D01*
X244313185Y-57393310D01*
X244314299Y-57386582D01*
X244314300Y-57386578D01*
X244341648Y-57221383D01*
X244341648Y-57221380D01*
X244342763Y-57214646D01*
X244342155Y-57203031D01*
X244333642Y-57040610D01*
X244333285Y-57033797D01*
X244309959Y-56949110D01*
X244287007Y-56865785D01*
X244285194Y-56859203D01*
X244200733Y-56699008D01*
X244196328Y-56693795D01*
X244196325Y-56693791D01*
X244088249Y-56565901D01*
X244088245Y-56565897D01*
X244083842Y-56560687D01*
X244078417Y-56556539D01*
X243945398Y-56454838D01*
X243945394Y-56454835D01*
X243939977Y-56450694D01*
X243834841Y-56401669D01*
X243782024Y-56377039D01*
X243782021Y-56377038D01*
X243775847Y-56374159D01*
X243769199Y-56372673D01*
X243769196Y-56372672D01*
X243604149Y-56335780D01*
X243604150Y-56335780D01*
X243599112Y-56334654D01*
X243593567Y-56334344D01*
X243460411Y-56334344D01*
X243325618Y-56348987D01*
X243242264Y-56377039D01*
X243160451Y-56404572D01*
X243160449Y-56404573D01*
X243153980Y-56406750D01*
X242998750Y-56500021D01*
X242993793Y-56504709D01*
X242993790Y-56504711D01*
X242938984Y-56556539D01*
X242867170Y-56624451D01*
X242863338Y-56630089D01*
X242863335Y-56630093D01*
X242812395Y-56705049D01*
X242765378Y-56774232D01*
X242698125Y-56942378D01*
X242697011Y-56949106D01*
X242697010Y-56949110D01*
X242678535Y-57060708D01*
X242668547Y-57121042D01*
X224206788Y-57121042D01*
X224336758Y-57063989D01*
X224343198Y-57060708D01*
X224636448Y-56889346D01*
X224642481Y-56885337D01*
X224900983Y-56691249D01*
X224909437Y-56679922D01*
X224902692Y-56667592D01*
X222984965Y-54749864D01*
X222971024Y-54742252D01*
X222969189Y-54742383D01*
X222962575Y-54746634D01*
X221043629Y-56665581D01*
X221036015Y-56679525D01*
X187980155Y-56679525D01*
X187980155Y-54286831D01*
X219960639Y-54286831D01*
X219969529Y-54626349D01*
X219970135Y-54633565D01*
X220017990Y-54969807D01*
X220019424Y-54976918D01*
X220105610Y-55305439D01*
X220107847Y-55312322D01*
X220231219Y-55628758D01*
X220234236Y-55635347D01*
X220393157Y-55935496D01*
X220396916Y-55941704D01*
X220589284Y-56221601D01*
X220593729Y-56227330D01*
X220660898Y-56304328D01*
X220674072Y-56312732D01*
X220683924Y-56306864D01*
X222600135Y-54390654D01*
X222606512Y-54378975D01*
X223336563Y-54378975D01*
X223336694Y-54380810D01*
X223340945Y-54387424D01*
X225258423Y-56304901D01*
X225271777Y-56312193D01*
X225281749Y-56305139D01*
X225388796Y-56177111D01*
X225393112Y-56171300D01*
X225579587Y-55887419D01*
X225583201Y-55881157D01*
X225735813Y-55577726D01*
X225738685Y-55571088D01*
X225855404Y-55252137D01*
X225857500Y-55245195D01*
X225936786Y-54914947D01*
X225938070Y-54907808D01*
X225978971Y-54569817D01*
X225979395Y-54564247D01*
X225985165Y-54380641D01*
X225985092Y-54375048D01*
X225965493Y-54035147D01*
X225964661Y-54027957D01*
X225906268Y-53693373D01*
X225904613Y-53686318D01*
X225808153Y-53360678D01*
X225805695Y-53353850D01*
X225672445Y-53041452D01*
X225669228Y-53034969D01*
X225500943Y-52739933D01*
X225497011Y-52733878D01*
X225295929Y-52460139D01*
X225291321Y-52454570D01*
X225285985Y-52448828D01*
X225272333Y-52440710D01*
X225271725Y-52440731D01*
X225263247Y-52445963D01*
X223344175Y-54365034D01*
X223336563Y-54378975D01*
X222606512Y-54378975D01*
X222607747Y-54376713D01*
X222607616Y-54374878D01*
X222603365Y-54368264D01*
X220684529Y-52449429D01*
X220671736Y-52442443D01*
X220660982Y-52450308D01*
X220500192Y-52655371D01*
X220496057Y-52661320D01*
X220318595Y-52950912D01*
X220315174Y-52957291D01*
X220172171Y-53265366D01*
X220169511Y-53272085D01*
X220062866Y-53594551D01*
X220060989Y-53601555D01*
X219992116Y-53934132D01*
X219991059Y-53941293D01*
X219960867Y-54279579D01*
X219960639Y-54286831D01*
X187980155Y-54286831D01*
X187980155Y-52078892D01*
X221037287Y-52078892D01*
X221043682Y-52090160D01*
X222959345Y-54005824D01*
X222973286Y-54013436D01*
X222975121Y-54013305D01*
X222981735Y-54009054D01*
X224899229Y-52091560D01*
X224906621Y-52078023D01*
X224899834Y-52068323D01*
X224796631Y-51980179D01*
X224790859Y-51975797D01*
X224508951Y-51786363D01*
X224502730Y-51782683D01*
X224200912Y-51626904D01*
X224194301Y-51623960D01*
X223876594Y-51503909D01*
X223869668Y-51501738D01*
X223540267Y-51418999D01*
X223533160Y-51417643D01*
X223196433Y-51373312D01*
X223189191Y-51372781D01*
X222849622Y-51367446D01*
X222842360Y-51367750D01*
X222504411Y-51401482D01*
X222497263Y-51402614D01*
X222165418Y-51474968D01*
X222158440Y-51476916D01*
X221837115Y-51586930D01*
X221830408Y-51589667D01*
X221523862Y-51735883D01*
X221517504Y-51739378D01*
X221229809Y-51919849D01*
X221223886Y-51924058D01*
X221045756Y-52066767D01*
X221037287Y-52078892D01*
X187980155Y-52078892D01*
X187980155Y-51341042D01*
X242668547Y-51341042D01*
X242668904Y-51347859D01*
X242668904Y-51347863D01*
X242673806Y-51441383D01*
X242678025Y-51521891D01*
X242679836Y-51528464D01*
X242679836Y-51528467D01*
X242703206Y-51613310D01*
X242726116Y-51696485D01*
X242810577Y-51856680D01*
X242814982Y-51861893D01*
X242814985Y-51861897D01*
X242923061Y-51989787D01*
X242923065Y-51989791D01*
X242927468Y-51995001D01*
X242932892Y-51999148D01*
X242932893Y-51999149D01*
X243065912Y-52100850D01*
X243065916Y-52100853D01*
X243071333Y-52104994D01*
X243158027Y-52145420D01*
X243229286Y-52178649D01*
X243229289Y-52178650D01*
X243235463Y-52181529D01*
X243242111Y-52183015D01*
X243242114Y-52183016D01*
X243348076Y-52206701D01*
X243412198Y-52221034D01*
X243417743Y-52221344D01*
X243550899Y-52221344D01*
X243685692Y-52206701D01*
X243803845Y-52166938D01*
X243850859Y-52151116D01*
X243850861Y-52151115D01*
X243857330Y-52148938D01*
X244012560Y-52055667D01*
X244017517Y-52050979D01*
X244017520Y-52050977D01*
X244139182Y-51935926D01*
X244139184Y-51935924D01*
X244144140Y-51931237D01*
X244147972Y-51925599D01*
X244147975Y-51925595D01*
X244242097Y-51787099D01*
X244245932Y-51781456D01*
X244313185Y-51613310D01*
X244314299Y-51606582D01*
X244314300Y-51606578D01*
X244341648Y-51441383D01*
X244341648Y-51441380D01*
X244342763Y-51434646D01*
X244341085Y-51402614D01*
X244333642Y-51260610D01*
X244333285Y-51253797D01*
X244309959Y-51169110D01*
X244287007Y-51085785D01*
X244285194Y-51079203D01*
X244200733Y-50919008D01*
X244196328Y-50913795D01*
X244196325Y-50913791D01*
X244088249Y-50785901D01*
X244088245Y-50785897D01*
X244083842Y-50780687D01*
X244078417Y-50776539D01*
X243945398Y-50674838D01*
X243945394Y-50674835D01*
X243939977Y-50670694D01*
X243834841Y-50621669D01*
X243782024Y-50597039D01*
X243782021Y-50597038D01*
X243775847Y-50594159D01*
X243769199Y-50592673D01*
X243769196Y-50592672D01*
X243604149Y-50555780D01*
X243604150Y-50555780D01*
X243599112Y-50554654D01*
X243593567Y-50554344D01*
X243460411Y-50554344D01*
X243325618Y-50568987D01*
X243242264Y-50597039D01*
X243160451Y-50624572D01*
X243160449Y-50624573D01*
X243153980Y-50626750D01*
X242998750Y-50720021D01*
X242993793Y-50724709D01*
X242993790Y-50724711D01*
X242938984Y-50776539D01*
X242867170Y-50844451D01*
X242863338Y-50850089D01*
X242863335Y-50850093D01*
X242812395Y-50925049D01*
X242765378Y-50994232D01*
X242698125Y-51162378D01*
X242697011Y-51169106D01*
X242697010Y-51169110D01*
X242669662Y-51334305D01*
X242668547Y-51341042D01*
X187980155Y-51341042D01*
X187980155Y-45367844D01*
X193693561Y-45367844D01*
X193713897Y-45600288D01*
X193774288Y-45825670D01*
X193776610Y-45830650D01*
X193776611Y-45830652D01*
X193870573Y-46032154D01*
X193870576Y-46032159D01*
X193872899Y-46037141D01*
X194006733Y-46228276D01*
X194171723Y-46393266D01*
X194176231Y-46396423D01*
X194176234Y-46396425D01*
X194358349Y-46523943D01*
X194362858Y-46527100D01*
X194367840Y-46529423D01*
X194367845Y-46529426D01*
X194569347Y-46623388D01*
X194574329Y-46625711D01*
X194579637Y-46627133D01*
X194579639Y-46627134D01*
X194650208Y-46646043D01*
X194799711Y-46686102D01*
X194891009Y-46694089D01*
X194971205Y-46701106D01*
X194971214Y-46701106D01*
X194973930Y-46701344D01*
X195090380Y-46701344D01*
X195093096Y-46701106D01*
X195093105Y-46701106D01*
X195173301Y-46694089D01*
X195264599Y-46686102D01*
X195414102Y-46646043D01*
X195484671Y-46627134D01*
X195484673Y-46627133D01*
X195489981Y-46625711D01*
X195494963Y-46623388D01*
X195696465Y-46529426D01*
X195696470Y-46529423D01*
X195701452Y-46527100D01*
X195705961Y-46523943D01*
X195888076Y-46396425D01*
X195888079Y-46396423D01*
X195892587Y-46393266D01*
X196057577Y-46228276D01*
X196191411Y-46037141D01*
X196193734Y-46032159D01*
X196193737Y-46032154D01*
X196287699Y-45830652D01*
X196287700Y-45830650D01*
X196290022Y-45825670D01*
X196350413Y-45600288D01*
X196370749Y-45367844D01*
X196350413Y-45135400D01*
X196290022Y-44910018D01*
X196287699Y-44905036D01*
X196193737Y-44703534D01*
X196193734Y-44703529D01*
X196191411Y-44698547D01*
X196188254Y-44694038D01*
X196060736Y-44511923D01*
X196060734Y-44511920D01*
X196057577Y-44507412D01*
X195892587Y-44342422D01*
X195888079Y-44339265D01*
X195888076Y-44339263D01*
X195705961Y-44211745D01*
X195705959Y-44211744D01*
X195701452Y-44208588D01*
X195696470Y-44206265D01*
X195696465Y-44206262D01*
X195494963Y-44112300D01*
X195494961Y-44112299D01*
X195489981Y-44109977D01*
X195484673Y-44108555D01*
X195484671Y-44108554D01*
X195414102Y-44089645D01*
X195264599Y-44049586D01*
X195173301Y-44041599D01*
X195093105Y-44034582D01*
X195093096Y-44034582D01*
X195090380Y-44034344D01*
X194973930Y-44034344D01*
X194971214Y-44034582D01*
X194971205Y-44034582D01*
X194891009Y-44041599D01*
X194799711Y-44049586D01*
X194650208Y-44089645D01*
X194579639Y-44108554D01*
X194579637Y-44108555D01*
X194574329Y-44109977D01*
X194569349Y-44112299D01*
X194569347Y-44112300D01*
X194367845Y-44206262D01*
X194367840Y-44206265D01*
X194362858Y-44208588D01*
X194358351Y-44211744D01*
X194358349Y-44211745D01*
X194176234Y-44339263D01*
X194176231Y-44339265D01*
X194171723Y-44342422D01*
X194006733Y-44507412D01*
X194003576Y-44511920D01*
X194003574Y-44511923D01*
X193876056Y-44694038D01*
X193872899Y-44698547D01*
X193870576Y-44703529D01*
X193870573Y-44703534D01*
X193776611Y-44905036D01*
X193774288Y-44910018D01*
X193713897Y-45135400D01*
X193693561Y-45367844D01*
X187980155Y-45367844D01*
X187980155Y-42911844D01*
X188000157Y-42843723D01*
X188053813Y-42797230D01*
X188106155Y-42785844D01*
X223371808Y-42785844D01*
X243800342Y-42807419D01*
G37*
%TD.AperFunction*%
%TD*%
M02*
