%TF.GenerationSoftware,KiCad,Pcbnew,(6.0.1)*%
%TF.CreationDate,2022-03-02T01:05:40-06:00*%
%TF.ProjectId,m2-USBC-Adapter-Rev2,6d322d55-5342-4432-9d41-646170746572,rev?*%
%TF.SameCoordinates,Original*%
%TF.FileFunction,Legend,Bot*%
%TF.FilePolarity,Positive*%
%FSLAX46Y46*%
G04 Gerber Fmt 4.6, Leading zero omitted, Abs format (unit mm)*
G04 Created by KiCad (PCBNEW (6.0.1)) date 2022-03-02 01:05:40*
%MOMM*%
%LPD*%
G01*
G04 APERTURE LIST*
%ADD10C,0.150000*%
%ADD11C,5.000000*%
%ADD12C,1.150000*%
%ADD13C,1.650000*%
%ADD14C,0.650000*%
G04 APERTURE END LIST*
D10*
X192197380Y-48019047D02*
X193197380Y-48257142D01*
X192483095Y-48447619D01*
X193197380Y-48638095D01*
X192197380Y-48876190D01*
X193197380Y-49257142D02*
X192197380Y-49257142D01*
X192673571Y-49257142D02*
X192673571Y-49828571D01*
X193197380Y-49828571D02*
X192197380Y-49828571D01*
X192911666Y-50257142D02*
X192911666Y-50733333D01*
X193197380Y-50161904D02*
X192197380Y-50495238D01*
X193197380Y-50828571D01*
X192197380Y-51019047D02*
X192197380Y-51590476D01*
X193197380Y-51304761D02*
X192197380Y-51304761D01*
X193197380Y-52685714D02*
X192197380Y-52685714D01*
X192197380Y-52923809D01*
X192245000Y-53066666D01*
X192340238Y-53161904D01*
X192435476Y-53209523D01*
X192625952Y-53257142D01*
X192768809Y-53257142D01*
X192959285Y-53209523D01*
X193054523Y-53161904D01*
X193149761Y-53066666D01*
X193197380Y-52923809D01*
X193197380Y-52685714D01*
X192197380Y-53876190D02*
X192197380Y-54066666D01*
X192245000Y-54161904D01*
X192340238Y-54257142D01*
X192530714Y-54304761D01*
X192864047Y-54304761D01*
X193054523Y-54257142D01*
X193149761Y-54161904D01*
X193197380Y-54066666D01*
X193197380Y-53876190D01*
X193149761Y-53780952D01*
X193054523Y-53685714D01*
X192864047Y-53638095D01*
X192530714Y-53638095D01*
X192340238Y-53685714D01*
X192245000Y-53780952D01*
X192197380Y-53876190D01*
X192721190Y-55685714D02*
X193197380Y-55685714D01*
X192197380Y-55352380D02*
X192721190Y-55685714D01*
X192197380Y-56019047D01*
X192197380Y-56542857D02*
X192197380Y-56733333D01*
X192245000Y-56828571D01*
X192340238Y-56923809D01*
X192530714Y-56971428D01*
X192864047Y-56971428D01*
X193054523Y-56923809D01*
X193149761Y-56828571D01*
X193197380Y-56733333D01*
X193197380Y-56542857D01*
X193149761Y-56447619D01*
X193054523Y-56352380D01*
X192864047Y-56304761D01*
X192530714Y-56304761D01*
X192340238Y-56352380D01*
X192245000Y-56447619D01*
X192197380Y-56542857D01*
X192197380Y-57400000D02*
X193006904Y-57400000D01*
X193102142Y-57447619D01*
X193149761Y-57495238D01*
X193197380Y-57590476D01*
X193197380Y-57780952D01*
X193149761Y-57876190D01*
X193102142Y-57923809D01*
X193006904Y-57971428D01*
X192197380Y-57971428D01*
X193197380Y-59209523D02*
X192197380Y-59209523D01*
X192911666Y-59542857D01*
X192197380Y-59876190D01*
X193197380Y-59876190D01*
X192673571Y-60352380D02*
X192673571Y-60685714D01*
X193197380Y-60828571D02*
X193197380Y-60352380D01*
X192197380Y-60352380D01*
X192197380Y-60828571D01*
X192911666Y-61209523D02*
X192911666Y-61685714D01*
X193197380Y-61114285D02*
X192197380Y-61447619D01*
X193197380Y-61780952D01*
X193197380Y-62114285D02*
X192197380Y-62114285D01*
X193197380Y-62685714D01*
X192197380Y-62685714D01*
X194331190Y-49566666D02*
X194807380Y-49566666D01*
X193807380Y-49233333D02*
X194331190Y-49566666D01*
X193807380Y-49900000D01*
X193807380Y-50423809D02*
X193807380Y-50614285D01*
X193855000Y-50709523D01*
X193950238Y-50804761D01*
X194140714Y-50852380D01*
X194474047Y-50852380D01*
X194664523Y-50804761D01*
X194759761Y-50709523D01*
X194807380Y-50614285D01*
X194807380Y-50423809D01*
X194759761Y-50328571D01*
X194664523Y-50233333D01*
X194474047Y-50185714D01*
X194140714Y-50185714D01*
X193950238Y-50233333D01*
X193855000Y-50328571D01*
X193807380Y-50423809D01*
X193807380Y-51280952D02*
X194616904Y-51280952D01*
X194712142Y-51328571D01*
X194759761Y-51376190D01*
X194807380Y-51471428D01*
X194807380Y-51661904D01*
X194759761Y-51757142D01*
X194712142Y-51804761D01*
X194616904Y-51852380D01*
X193807380Y-51852380D01*
X193807380Y-52376190D02*
X193997857Y-52280952D01*
X194807380Y-53376190D02*
X194331190Y-53042857D01*
X194807380Y-52804761D02*
X193807380Y-52804761D01*
X193807380Y-53185714D01*
X193855000Y-53280952D01*
X193902619Y-53328571D01*
X193997857Y-53376190D01*
X194140714Y-53376190D01*
X194235952Y-53328571D01*
X194283571Y-53280952D01*
X194331190Y-53185714D01*
X194331190Y-52804761D01*
X194283571Y-53804761D02*
X194283571Y-54138095D01*
X194807380Y-54280952D02*
X194807380Y-53804761D01*
X193807380Y-53804761D01*
X193807380Y-54280952D01*
X194521666Y-55423809D02*
X194521666Y-55900000D01*
X194807380Y-55328571D02*
X193807380Y-55661904D01*
X194807380Y-55995238D01*
X193807380Y-56185714D02*
X193807380Y-56757142D01*
X194807380Y-56471428D02*
X193807380Y-56471428D01*
X194759761Y-57804761D02*
X194807380Y-57947619D01*
X194807380Y-58185714D01*
X194759761Y-58280952D01*
X194712142Y-58328571D01*
X194616904Y-58376190D01*
X194521666Y-58376190D01*
X194426428Y-58328571D01*
X194378809Y-58280952D01*
X194331190Y-58185714D01*
X194283571Y-57995238D01*
X194235952Y-57900000D01*
X194188333Y-57852380D01*
X194093095Y-57804761D01*
X193997857Y-57804761D01*
X193902619Y-57852380D01*
X193855000Y-57900000D01*
X193807380Y-57995238D01*
X193807380Y-58233333D01*
X193855000Y-58376190D01*
X193807380Y-58995238D02*
X193807380Y-59185714D01*
X193855000Y-59280952D01*
X193950238Y-59376190D01*
X194140714Y-59423809D01*
X194474047Y-59423809D01*
X194664523Y-59376190D01*
X194759761Y-59280952D01*
X194807380Y-59185714D01*
X194807380Y-58995238D01*
X194759761Y-58900000D01*
X194664523Y-58804761D01*
X194474047Y-58757142D01*
X194140714Y-58757142D01*
X193950238Y-58804761D01*
X193855000Y-58900000D01*
X193807380Y-58995238D01*
X193807380Y-59852380D02*
X194616904Y-59852380D01*
X194712142Y-59900000D01*
X194759761Y-59947619D01*
X194807380Y-60042857D01*
X194807380Y-60233333D01*
X194759761Y-60328571D01*
X194712142Y-60376190D01*
X194616904Y-60423809D01*
X193807380Y-60423809D01*
X194807380Y-60900000D02*
X193807380Y-60900000D01*
X193807380Y-61280952D01*
X193855000Y-61376190D01*
X193902619Y-61423809D01*
X193997857Y-61471428D01*
X194140714Y-61471428D01*
X194235952Y-61423809D01*
X194283571Y-61376190D01*
X194331190Y-61280952D01*
X194331190Y-60900000D01*
%LPC*%
D11*
%TO.C,H1*%
X222972155Y-54377844D03*
%TD*%
D12*
%TO.C,J2*%
X195032155Y-65367844D03*
D13*
X195032155Y-45367844D03*
%TD*%
D14*
%TO.C,J1*%
X243505655Y-51387844D03*
X243505655Y-57167844D03*
%TD*%
M02*
