%TF.GenerationSoftware,KiCad,Pcbnew,(5.1.10)-1*%
%TF.CreationDate,2021-11-29T10:36:54-06:00*%
%TF.ProjectId,m2-USBC-Adapter,6d322d55-5342-4432-9d41-646170746572,rev?*%
%TF.SameCoordinates,Original*%
%TF.FileFunction,Legend,Top*%
%TF.FilePolarity,Positive*%
%FSLAX46Y46*%
G04 Gerber Fmt 4.6, Leading zero omitted, Abs format (unit mm)*
G04 Created by KiCad (PCBNEW (5.1.10)-1) date 2021-11-29 10:36:54*
%MOMM*%
%LPD*%
G01*
G04 APERTURE LIST*
%ADD10C,0.120000*%
%ADD11C,0.100000*%
%ADD12C,0.200000*%
%ADD13C,0.150000*%
%ADD14C,0.254000*%
%ADD15R,0.500000X1.260000*%
%ADD16R,2.750000X1.200000*%
%ADD17R,1.550000X0.300000*%
%ADD18O,2.216000X1.108000*%
%ADD19C,0.650000*%
%ADD20C,5.000000*%
G04 APERTURE END LIST*
D10*
%TO.C,U1*%
X124250000Y-87310000D02*
X123450000Y-87310000D01*
X125050000Y-85490000D02*
X123450000Y-85490000D01*
%TO.C,R2*%
X121485436Y-96840000D02*
X122939564Y-96840000D01*
X121485436Y-98660000D02*
X122939564Y-98660000D01*
%TO.C,R1*%
X121585436Y-101540000D02*
X123039564Y-101540000D01*
X121585436Y-103360000D02*
X123039564Y-103360000D01*
D11*
%TO.C,J2*%
X79910000Y-104790000D02*
G75*
G02*
X79911000Y-104690000I500J50000D01*
G01*
X79910000Y-104690000D02*
G75*
G02*
X79911000Y-104790000I500J-50000D01*
G01*
X80935000Y-98490000D02*
X80935000Y-97490000D01*
X88485000Y-98990000D02*
X88485000Y-97490000D01*
X83710000Y-106440000D02*
X88485000Y-106440000D01*
X88485000Y-106440000D02*
X88485000Y-104990000D01*
X83710000Y-84540000D02*
X88485000Y-84540000D01*
X88485000Y-84540000D02*
X88485000Y-85990000D01*
X79911000Y-104790000D02*
X79911000Y-104790000D01*
X79911000Y-104690000D02*
X79911000Y-104690000D01*
D12*
%TO.C,J1*%
X132665000Y-98965000D02*
X132665000Y-90015000D01*
X138975000Y-98965000D02*
X139325000Y-98965000D01*
X139325000Y-98965000D02*
X139325000Y-90015000D01*
X139325000Y-90015000D02*
X138975000Y-90015000D01*
D11*
%TO.C,D3*%
X127650000Y-96445000D02*
G75*
G03*
X127650000Y-96445000I-50000J0D01*
G01*
%TO.C,D2*%
X127650000Y-101825000D02*
G75*
G03*
X127650000Y-101825000I-50000J0D01*
G01*
%TO.C,D1*%
X127900000Y-85175000D02*
G75*
G03*
X127900000Y-85175000I-50000J0D01*
G01*
D10*
%TO.C,C3*%
X123210000Y-91163748D02*
X123210000Y-92586252D01*
X121390000Y-91163748D02*
X121390000Y-92586252D01*
%TO.C,C2*%
X119010000Y-86613748D02*
X119010000Y-88036252D01*
X117190000Y-86613748D02*
X117190000Y-88036252D01*
%TO.C,C1*%
X126740000Y-92486252D02*
X126740000Y-91063748D01*
X128560000Y-92486252D02*
X128560000Y-91063748D01*
%TO.C,U1*%
D13*
X123488095Y-87602380D02*
X123488095Y-88411904D01*
X123535714Y-88507142D01*
X123583333Y-88554761D01*
X123678571Y-88602380D01*
X123869047Y-88602380D01*
X123964285Y-88554761D01*
X124011904Y-88507142D01*
X124059523Y-88411904D01*
X124059523Y-87602380D01*
X125059523Y-88602380D02*
X124488095Y-88602380D01*
X124773809Y-88602380D02*
X124773809Y-87602380D01*
X124678571Y-87745238D01*
X124583333Y-87840476D01*
X124488095Y-87888095D01*
%TO.C,R2*%
X122045833Y-96382380D02*
X121712500Y-95906190D01*
X121474404Y-96382380D02*
X121474404Y-95382380D01*
X121855357Y-95382380D01*
X121950595Y-95430000D01*
X121998214Y-95477619D01*
X122045833Y-95572857D01*
X122045833Y-95715714D01*
X121998214Y-95810952D01*
X121950595Y-95858571D01*
X121855357Y-95906190D01*
X121474404Y-95906190D01*
X122426785Y-95477619D02*
X122474404Y-95430000D01*
X122569642Y-95382380D01*
X122807738Y-95382380D01*
X122902976Y-95430000D01*
X122950595Y-95477619D01*
X122998214Y-95572857D01*
X122998214Y-95668095D01*
X122950595Y-95810952D01*
X122379166Y-96382380D01*
X122998214Y-96382380D01*
%TO.C,R1*%
X122145833Y-101082380D02*
X121812500Y-100606190D01*
X121574404Y-101082380D02*
X121574404Y-100082380D01*
X121955357Y-100082380D01*
X122050595Y-100130000D01*
X122098214Y-100177619D01*
X122145833Y-100272857D01*
X122145833Y-100415714D01*
X122098214Y-100510952D01*
X122050595Y-100558571D01*
X121955357Y-100606190D01*
X121574404Y-100606190D01*
X123098214Y-101082380D02*
X122526785Y-101082380D01*
X122812500Y-101082380D02*
X122812500Y-100082380D01*
X122717261Y-100225238D01*
X122622023Y-100320476D01*
X122526785Y-100368095D01*
%TO.C,J2*%
D14*
X83864523Y-95913333D02*
X84771666Y-95913333D01*
X84953095Y-95973809D01*
X85074047Y-96094761D01*
X85134523Y-96276190D01*
X85134523Y-96397142D01*
X83985476Y-95369047D02*
X83925000Y-95308571D01*
X83864523Y-95187619D01*
X83864523Y-94885238D01*
X83925000Y-94764285D01*
X83985476Y-94703809D01*
X84106428Y-94643333D01*
X84227380Y-94643333D01*
X84408809Y-94703809D01*
X85134523Y-95429523D01*
X85134523Y-94643333D01*
%TO.C,J1*%
D13*
X130186883Y-95920808D02*
X130901276Y-95920808D01*
X131044155Y-95968434D01*
X131139407Y-96063686D01*
X131187033Y-96206565D01*
X131187033Y-96301817D01*
X131187033Y-94920658D02*
X131187033Y-95492172D01*
X131187033Y-95206415D02*
X130186883Y-95206415D01*
X130329762Y-95301667D01*
X130425014Y-95396920D01*
X130472640Y-95492172D01*
%TO.C,H1*%
X113388095Y-91452380D02*
X113388095Y-90452380D01*
X113388095Y-90928571D02*
X113959523Y-90928571D01*
X113959523Y-91452380D02*
X113959523Y-90452380D01*
X114959523Y-91452380D02*
X114388095Y-91452380D01*
X114673809Y-91452380D02*
X114673809Y-90452380D01*
X114578571Y-90595238D01*
X114483333Y-90690476D01*
X114388095Y-90738095D01*
%TO.C,D3*%
X129222380Y-98273095D02*
X128222380Y-98273095D01*
X128222380Y-98035000D01*
X128270000Y-97892142D01*
X128365238Y-97796904D01*
X128460476Y-97749285D01*
X128650952Y-97701666D01*
X128793809Y-97701666D01*
X128984285Y-97749285D01*
X129079523Y-97796904D01*
X129174761Y-97892142D01*
X129222380Y-98035000D01*
X129222380Y-98273095D01*
X128222380Y-97368333D02*
X128222380Y-96749285D01*
X128603333Y-97082619D01*
X128603333Y-96939761D01*
X128650952Y-96844523D01*
X128698571Y-96796904D01*
X128793809Y-96749285D01*
X129031904Y-96749285D01*
X129127142Y-96796904D01*
X129174761Y-96844523D01*
X129222380Y-96939761D01*
X129222380Y-97225476D01*
X129174761Y-97320714D01*
X129127142Y-97368333D01*
%TO.C,D2*%
X126882380Y-101473095D02*
X125882380Y-101473095D01*
X125882380Y-101235000D01*
X125930000Y-101092142D01*
X126025238Y-100996904D01*
X126120476Y-100949285D01*
X126310952Y-100901666D01*
X126453809Y-100901666D01*
X126644285Y-100949285D01*
X126739523Y-100996904D01*
X126834761Y-101092142D01*
X126882380Y-101235000D01*
X126882380Y-101473095D01*
X125977619Y-100520714D02*
X125930000Y-100473095D01*
X125882380Y-100377857D01*
X125882380Y-100139761D01*
X125930000Y-100044523D01*
X125977619Y-99996904D01*
X126072857Y-99949285D01*
X126168095Y-99949285D01*
X126310952Y-99996904D01*
X126882380Y-100568333D01*
X126882380Y-99949285D01*
%TO.C,D1*%
X129472380Y-87003095D02*
X128472380Y-87003095D01*
X128472380Y-86765000D01*
X128520000Y-86622142D01*
X128615238Y-86526904D01*
X128710476Y-86479285D01*
X128900952Y-86431666D01*
X129043809Y-86431666D01*
X129234285Y-86479285D01*
X129329523Y-86526904D01*
X129424761Y-86622142D01*
X129472380Y-86765000D01*
X129472380Y-87003095D01*
X129472380Y-85479285D02*
X129472380Y-86050714D01*
X129472380Y-85765000D02*
X128472380Y-85765000D01*
X128615238Y-85860238D01*
X128710476Y-85955476D01*
X128758095Y-86050714D01*
%TO.C,C3*%
X124507142Y-92041666D02*
X124554761Y-92089285D01*
X124602380Y-92232142D01*
X124602380Y-92327380D01*
X124554761Y-92470238D01*
X124459523Y-92565476D01*
X124364285Y-92613095D01*
X124173809Y-92660714D01*
X124030952Y-92660714D01*
X123840476Y-92613095D01*
X123745238Y-92565476D01*
X123650000Y-92470238D01*
X123602380Y-92327380D01*
X123602380Y-92232142D01*
X123650000Y-92089285D01*
X123697619Y-92041666D01*
X123602380Y-91708333D02*
X123602380Y-91089285D01*
X123983333Y-91422619D01*
X123983333Y-91279761D01*
X124030952Y-91184523D01*
X124078571Y-91136904D01*
X124173809Y-91089285D01*
X124411904Y-91089285D01*
X124507142Y-91136904D01*
X124554761Y-91184523D01*
X124602380Y-91279761D01*
X124602380Y-91565476D01*
X124554761Y-91660714D01*
X124507142Y-91708333D01*
%TO.C,C2*%
X120307142Y-87491666D02*
X120354761Y-87539285D01*
X120402380Y-87682142D01*
X120402380Y-87777380D01*
X120354761Y-87920238D01*
X120259523Y-88015476D01*
X120164285Y-88063095D01*
X119973809Y-88110714D01*
X119830952Y-88110714D01*
X119640476Y-88063095D01*
X119545238Y-88015476D01*
X119450000Y-87920238D01*
X119402380Y-87777380D01*
X119402380Y-87682142D01*
X119450000Y-87539285D01*
X119497619Y-87491666D01*
X119497619Y-87110714D02*
X119450000Y-87063095D01*
X119402380Y-86967857D01*
X119402380Y-86729761D01*
X119450000Y-86634523D01*
X119497619Y-86586904D01*
X119592857Y-86539285D01*
X119688095Y-86539285D01*
X119830952Y-86586904D01*
X120402380Y-87158333D01*
X120402380Y-86539285D01*
%TO.C,C1*%
X126157142Y-91941666D02*
X126204761Y-91989285D01*
X126252380Y-92132142D01*
X126252380Y-92227380D01*
X126204761Y-92370238D01*
X126109523Y-92465476D01*
X126014285Y-92513095D01*
X125823809Y-92560714D01*
X125680952Y-92560714D01*
X125490476Y-92513095D01*
X125395238Y-92465476D01*
X125300000Y-92370238D01*
X125252380Y-92227380D01*
X125252380Y-92132142D01*
X125300000Y-91989285D01*
X125347619Y-91941666D01*
X126252380Y-90989285D02*
X126252380Y-91560714D01*
X126252380Y-91275000D02*
X125252380Y-91275000D01*
X125395238Y-91370238D01*
X125490476Y-91465476D01*
X125538095Y-91560714D01*
%TD*%
%LPC*%
D15*
%TO.C,U1*%
X124250000Y-86400000D03*
G36*
G01*
X123800000Y-86837500D02*
X123800000Y-86962500D01*
G75*
G02*
X123737500Y-87025000I-62500J0D01*
G01*
X123162500Y-87025000D01*
G75*
G02*
X123100000Y-86962500I0J62500D01*
G01*
X123100000Y-86837500D01*
G75*
G02*
X123162500Y-86775000I62500J0D01*
G01*
X123737500Y-86775000D01*
G75*
G02*
X123800000Y-86837500I0J-62500D01*
G01*
G37*
G36*
G01*
X123800000Y-86337500D02*
X123800000Y-86462500D01*
G75*
G02*
X123737500Y-86525000I-62500J0D01*
G01*
X123162500Y-86525000D01*
G75*
G02*
X123100000Y-86462500I0J62500D01*
G01*
X123100000Y-86337500D01*
G75*
G02*
X123162500Y-86275000I62500J0D01*
G01*
X123737500Y-86275000D01*
G75*
G02*
X123800000Y-86337500I0J-62500D01*
G01*
G37*
G36*
G01*
X123800000Y-85837500D02*
X123800000Y-85962500D01*
G75*
G02*
X123737500Y-86025000I-62500J0D01*
G01*
X123162500Y-86025000D01*
G75*
G02*
X123100000Y-85962500I0J62500D01*
G01*
X123100000Y-85837500D01*
G75*
G02*
X123162500Y-85775000I62500J0D01*
G01*
X123737500Y-85775000D01*
G75*
G02*
X123800000Y-85837500I0J-62500D01*
G01*
G37*
G36*
G01*
X125400000Y-85837500D02*
X125400000Y-85962500D01*
G75*
G02*
X125337500Y-86025000I-62500J0D01*
G01*
X124762500Y-86025000D01*
G75*
G02*
X124700000Y-85962500I0J62500D01*
G01*
X124700000Y-85837500D01*
G75*
G02*
X124762500Y-85775000I62500J0D01*
G01*
X125337500Y-85775000D01*
G75*
G02*
X125400000Y-85837500I0J-62500D01*
G01*
G37*
G36*
G01*
X125400000Y-86337500D02*
X125400000Y-86462500D01*
G75*
G02*
X125337500Y-86525000I-62500J0D01*
G01*
X124762500Y-86525000D01*
G75*
G02*
X124700000Y-86462500I0J62500D01*
G01*
X124700000Y-86337500D01*
G75*
G02*
X124762500Y-86275000I62500J0D01*
G01*
X125337500Y-86275000D01*
G75*
G02*
X125400000Y-86337500I0J-62500D01*
G01*
G37*
G36*
G01*
X125400000Y-86837500D02*
X125400000Y-86962500D01*
G75*
G02*
X125337500Y-87025000I-62500J0D01*
G01*
X124762500Y-87025000D01*
G75*
G02*
X124700000Y-86962500I0J62500D01*
G01*
X124700000Y-86837500D01*
G75*
G02*
X124762500Y-86775000I62500J0D01*
G01*
X125337500Y-86775000D01*
G75*
G02*
X125400000Y-86837500I0J-62500D01*
G01*
G37*
%TD*%
%TO.C,R2*%
G36*
G01*
X123112500Y-98375001D02*
X123112500Y-97124999D01*
G75*
G02*
X123362499Y-96875000I249999J0D01*
G01*
X123987501Y-96875000D01*
G75*
G02*
X124237500Y-97124999I0J-249999D01*
G01*
X124237500Y-98375001D01*
G75*
G02*
X123987501Y-98625000I-249999J0D01*
G01*
X123362499Y-98625000D01*
G75*
G02*
X123112500Y-98375001I0J249999D01*
G01*
G37*
G36*
G01*
X120187500Y-98375001D02*
X120187500Y-97124999D01*
G75*
G02*
X120437499Y-96875000I249999J0D01*
G01*
X121062501Y-96875000D01*
G75*
G02*
X121312500Y-97124999I0J-249999D01*
G01*
X121312500Y-98375001D01*
G75*
G02*
X121062501Y-98625000I-249999J0D01*
G01*
X120437499Y-98625000D01*
G75*
G02*
X120187500Y-98375001I0J249999D01*
G01*
G37*
%TD*%
%TO.C,R1*%
G36*
G01*
X123212500Y-103075001D02*
X123212500Y-101824999D01*
G75*
G02*
X123462499Y-101575000I249999J0D01*
G01*
X124087501Y-101575000D01*
G75*
G02*
X124337500Y-101824999I0J-249999D01*
G01*
X124337500Y-103075001D01*
G75*
G02*
X124087501Y-103325000I-249999J0D01*
G01*
X123462499Y-103325000D01*
G75*
G02*
X123212500Y-103075001I0J249999D01*
G01*
G37*
G36*
G01*
X120287500Y-103075001D02*
X120287500Y-101824999D01*
G75*
G02*
X120537499Y-101575000I249999J0D01*
G01*
X121162501Y-101575000D01*
G75*
G02*
X121412500Y-101824999I0J-249999D01*
G01*
X121412500Y-103075001D01*
G75*
G02*
X121162501Y-103325000I-249999J0D01*
G01*
X120537499Y-103325000D01*
G75*
G02*
X120287500Y-103075001I0J249999D01*
G01*
G37*
%TD*%
D16*
%TO.C,J2*%
X81710000Y-85140000D03*
X81710000Y-105840000D03*
D17*
X80935000Y-86240000D03*
X88485000Y-86490000D03*
X80935000Y-86740000D03*
X88485000Y-86990000D03*
X80935000Y-87240000D03*
X88485000Y-87490000D03*
X80935000Y-87740000D03*
X88485000Y-87990000D03*
X80935000Y-88240000D03*
X88485000Y-88490000D03*
X80935000Y-88740000D03*
X88485000Y-88990000D03*
X80935000Y-89240000D03*
X88485000Y-89490000D03*
X80935000Y-89740000D03*
X88485000Y-89990000D03*
X80935000Y-90240000D03*
X88485000Y-90490000D03*
X80935000Y-90740000D03*
X88485000Y-90990000D03*
X80935000Y-91240000D03*
X88485000Y-91490000D03*
X80935000Y-91740000D03*
X88485000Y-91990000D03*
X80935000Y-92240000D03*
X88485000Y-92490000D03*
X80935000Y-92740000D03*
X88485000Y-92990000D03*
X80935000Y-93240000D03*
X88485000Y-93490000D03*
X80935000Y-93740000D03*
X88485000Y-93990000D03*
X80935000Y-94240000D03*
X88485000Y-94490000D03*
X80935000Y-94740000D03*
X88485000Y-94990000D03*
X80935000Y-95240000D03*
X88485000Y-95490000D03*
X80935000Y-95740000D03*
X88485000Y-95990000D03*
X80935000Y-96240000D03*
X88485000Y-96490000D03*
X80935000Y-96740000D03*
X88485000Y-96990000D03*
X80935000Y-99240000D03*
X88485000Y-99490000D03*
X80935000Y-99740000D03*
X88485000Y-99990000D03*
X80935000Y-100240000D03*
X88485000Y-100490000D03*
X80935000Y-100740000D03*
X88485000Y-100990000D03*
X80935000Y-101240000D03*
X88485000Y-101490000D03*
X80935000Y-101740000D03*
X88485000Y-101990000D03*
X80935000Y-102240000D03*
X88485000Y-102490000D03*
X80935000Y-102740000D03*
X88485000Y-102990000D03*
X80935000Y-103240000D03*
X88485000Y-103490000D03*
X80935000Y-103740000D03*
X88485000Y-103990000D03*
X80935000Y-104240000D03*
X88485000Y-104490000D03*
X80935000Y-104740000D03*
%TD*%
D18*
%TO.C,J1*%
X137585000Y-98815000D03*
X137585000Y-90165000D03*
X134205000Y-90165000D03*
X134205000Y-98815000D03*
D19*
X134575000Y-97465000D03*
X134575000Y-96615000D03*
X134575000Y-95765000D03*
X134575000Y-94915000D03*
X134575000Y-94065000D03*
X134575000Y-93215000D03*
X134575000Y-92365000D03*
X134575000Y-91515000D03*
X133225000Y-91515000D03*
X133225000Y-92365000D03*
X133225000Y-93215000D03*
X133225000Y-94065000D03*
X133225000Y-94915000D03*
X133225000Y-95765000D03*
X133225000Y-96615000D03*
X133225000Y-97465000D03*
%TD*%
D20*
%TO.C,H1*%
X114150000Y-94500000D03*
%TD*%
%TO.C,D3*%
G36*
G01*
X127427500Y-97725000D02*
X127772500Y-97725000D01*
G75*
G02*
X127920000Y-97872500I0J-147500D01*
G01*
X127920000Y-98167500D01*
G75*
G02*
X127772500Y-98315000I-147500J0D01*
G01*
X127427500Y-98315000D01*
G75*
G02*
X127280000Y-98167500I0J147500D01*
G01*
X127280000Y-97872500D01*
G75*
G02*
X127427500Y-97725000I147500J0D01*
G01*
G37*
G36*
G01*
X127427500Y-96755000D02*
X127772500Y-96755000D01*
G75*
G02*
X127920000Y-96902500I0J-147500D01*
G01*
X127920000Y-97197500D01*
G75*
G02*
X127772500Y-97345000I-147500J0D01*
G01*
X127427500Y-97345000D01*
G75*
G02*
X127280000Y-97197500I0J147500D01*
G01*
X127280000Y-96902500D01*
G75*
G02*
X127427500Y-96755000I147500J0D01*
G01*
G37*
%TD*%
%TO.C,D2*%
G36*
G01*
X127772500Y-100545000D02*
X127427500Y-100545000D01*
G75*
G02*
X127280000Y-100397500I0J147500D01*
G01*
X127280000Y-100102500D01*
G75*
G02*
X127427500Y-99955000I147500J0D01*
G01*
X127772500Y-99955000D01*
G75*
G02*
X127920000Y-100102500I0J-147500D01*
G01*
X127920000Y-100397500D01*
G75*
G02*
X127772500Y-100545000I-147500J0D01*
G01*
G37*
G36*
G01*
X127772500Y-101515000D02*
X127427500Y-101515000D01*
G75*
G02*
X127280000Y-101367500I0J147500D01*
G01*
X127280000Y-101072500D01*
G75*
G02*
X127427500Y-100925000I147500J0D01*
G01*
X127772500Y-100925000D01*
G75*
G02*
X127920000Y-101072500I0J-147500D01*
G01*
X127920000Y-101367500D01*
G75*
G02*
X127772500Y-101515000I-147500J0D01*
G01*
G37*
%TD*%
%TO.C,D1*%
G36*
G01*
X127677500Y-86455000D02*
X128022500Y-86455000D01*
G75*
G02*
X128170000Y-86602500I0J-147500D01*
G01*
X128170000Y-86897500D01*
G75*
G02*
X128022500Y-87045000I-147500J0D01*
G01*
X127677500Y-87045000D01*
G75*
G02*
X127530000Y-86897500I0J147500D01*
G01*
X127530000Y-86602500D01*
G75*
G02*
X127677500Y-86455000I147500J0D01*
G01*
G37*
G36*
G01*
X127677500Y-85485000D02*
X128022500Y-85485000D01*
G75*
G02*
X128170000Y-85632500I0J-147500D01*
G01*
X128170000Y-85927500D01*
G75*
G02*
X128022500Y-86075000I-147500J0D01*
G01*
X127677500Y-86075000D01*
G75*
G02*
X127530000Y-85927500I0J147500D01*
G01*
X127530000Y-85632500D01*
G75*
G02*
X127677500Y-85485000I147500J0D01*
G01*
G37*
%TD*%
%TO.C,C3*%
G36*
G01*
X121649999Y-92775000D02*
X122950001Y-92775000D01*
G75*
G02*
X123200000Y-93024999I0J-249999D01*
G01*
X123200000Y-93675001D01*
G75*
G02*
X122950001Y-93925000I-249999J0D01*
G01*
X121649999Y-93925000D01*
G75*
G02*
X121400000Y-93675001I0J249999D01*
G01*
X121400000Y-93024999D01*
G75*
G02*
X121649999Y-92775000I249999J0D01*
G01*
G37*
G36*
G01*
X121649999Y-89825000D02*
X122950001Y-89825000D01*
G75*
G02*
X123200000Y-90074999I0J-249999D01*
G01*
X123200000Y-90725001D01*
G75*
G02*
X122950001Y-90975000I-249999J0D01*
G01*
X121649999Y-90975000D01*
G75*
G02*
X121400000Y-90725001I0J249999D01*
G01*
X121400000Y-90074999D01*
G75*
G02*
X121649999Y-89825000I249999J0D01*
G01*
G37*
%TD*%
%TO.C,C2*%
G36*
G01*
X117449999Y-88225000D02*
X118750001Y-88225000D01*
G75*
G02*
X119000000Y-88474999I0J-249999D01*
G01*
X119000000Y-89125001D01*
G75*
G02*
X118750001Y-89375000I-249999J0D01*
G01*
X117449999Y-89375000D01*
G75*
G02*
X117200000Y-89125001I0J249999D01*
G01*
X117200000Y-88474999D01*
G75*
G02*
X117449999Y-88225000I249999J0D01*
G01*
G37*
G36*
G01*
X117449999Y-85275000D02*
X118750001Y-85275000D01*
G75*
G02*
X119000000Y-85524999I0J-249999D01*
G01*
X119000000Y-86175001D01*
G75*
G02*
X118750001Y-86425000I-249999J0D01*
G01*
X117449999Y-86425000D01*
G75*
G02*
X117200000Y-86175001I0J249999D01*
G01*
X117200000Y-85524999D01*
G75*
G02*
X117449999Y-85275000I249999J0D01*
G01*
G37*
%TD*%
%TO.C,C1*%
G36*
G01*
X128300001Y-90875000D02*
X126999999Y-90875000D01*
G75*
G02*
X126750000Y-90625001I0J249999D01*
G01*
X126750000Y-89974999D01*
G75*
G02*
X126999999Y-89725000I249999J0D01*
G01*
X128300001Y-89725000D01*
G75*
G02*
X128550000Y-89974999I0J-249999D01*
G01*
X128550000Y-90625001D01*
G75*
G02*
X128300001Y-90875000I-249999J0D01*
G01*
G37*
G36*
G01*
X128300001Y-93825000D02*
X126999999Y-93825000D01*
G75*
G02*
X126750000Y-93575001I0J249999D01*
G01*
X126750000Y-92924999D01*
G75*
G02*
X126999999Y-92675000I249999J0D01*
G01*
X128300001Y-92675000D01*
G75*
G02*
X128550000Y-92924999I0J-249999D01*
G01*
X128550000Y-93575001D01*
G75*
G02*
X128300001Y-93825000I-249999J0D01*
G01*
G37*
%TD*%
M02*
