%TF.GenerationSoftware,KiCad,Pcbnew,(5.1.10)-1*%
%TF.CreationDate,2021-11-29T10:36:54-06:00*%
%TF.ProjectId,m2-USBC-Adapter,6d322d55-5342-4432-9d41-646170746572,rev?*%
%TF.SameCoordinates,Original*%
%TF.FileFunction,Copper,L2,Bot*%
%TF.FilePolarity,Positive*%
%FSLAX46Y46*%
G04 Gerber Fmt 4.6, Leading zero omitted, Abs format (unit mm)*
G04 Created by KiCad (PCBNEW (5.1.10)-1) date 2021-11-29 10:36:54*
%MOMM*%
%LPD*%
G01*
G04 APERTURE LIST*
%TA.AperFunction,ComponentPad*%
%ADD10O,2.216000X1.108000*%
%TD*%
%TA.AperFunction,ComponentPad*%
%ADD11C,0.650000*%
%TD*%
%TA.AperFunction,ComponentPad*%
%ADD12C,5.000000*%
%TD*%
%TA.AperFunction,Conductor*%
%ADD13C,0.254000*%
%TD*%
G04 APERTURE END LIST*
D10*
%TO.P,J1,P4*%
%TO.N,GND*%
X137585000Y-98815000D03*
%TO.P,J1,P3*%
X137585000Y-90165000D03*
%TO.P,J1,P2*%
X134205000Y-90165000D03*
%TO.P,J1,P1*%
X134205000Y-98815000D03*
D11*
%TO.P,J1,B12*%
X134575000Y-97465000D03*
%TO.P,J1,B9*%
%TO.N,/5V*%
X134575000Y-96615000D03*
%TO.P,J1,B8*%
%TO.N,Net-(J1-PadB8)*%
X134575000Y-95765000D03*
%TO.P,J1,B7*%
%TO.N,/D_plus_USB*%
X134575000Y-94915000D03*
%TO.P,J1,B6*%
%TO.N,/D_minus_USB*%
X134575000Y-94065000D03*
%TO.P,J1,B5*%
%TO.N,Net-(J1-PadB5)*%
X134575000Y-93215000D03*
%TO.P,J1,B4*%
%TO.N,/5V*%
X134575000Y-92365000D03*
%TO.P,J1,B1*%
%TO.N,GND*%
X134575000Y-91515000D03*
%TO.P,J1,A12*%
X133225000Y-91515000D03*
%TO.P,J1,A9*%
%TO.N,/5V*%
X133225000Y-92365000D03*
%TO.P,J1,A8*%
%TO.N,Net-(J1-PadA8)*%
X133225000Y-93215000D03*
%TO.P,J1,A7*%
%TO.N,/D_plus_USB*%
X133225000Y-94065000D03*
%TO.P,J1,A6*%
%TO.N,/D_minus_USB*%
X133225000Y-94915000D03*
%TO.P,J1,A5*%
%TO.N,Net-(J1-PadA5)*%
X133225000Y-95765000D03*
%TO.P,J1,A4*%
%TO.N,/5V*%
X133225000Y-96615000D03*
%TO.P,J1,A1*%
%TO.N,GND*%
X133225000Y-97465000D03*
%TD*%
D12*
%TO.P,H1,1*%
%TO.N,GND*%
X114150000Y-94500000D03*
%TD*%
D13*
%TO.N,GND*%
X134205000Y-90165000D02*
X137585000Y-90165000D01*
X133225000Y-91515000D02*
X134575000Y-91515000D01*
X134575000Y-90535000D02*
X134205000Y-90165000D01*
X134575000Y-91515000D02*
X134575000Y-90535000D01*
X134205000Y-98815000D02*
X137585000Y-98815000D01*
X133225000Y-97465000D02*
X134575000Y-97465000D01*
X134575000Y-98445000D02*
X134205000Y-98815000D01*
X134575000Y-97465000D02*
X134575000Y-98445000D01*
X137585000Y-98815000D02*
X137585000Y-90165000D01*
X129780381Y-94500000D02*
X114150000Y-94500000D01*
X132765381Y-91515000D02*
X129780381Y-94500000D01*
X133225000Y-91515000D02*
X132765381Y-91515000D01*
%TO.N,/5V*%
X134460038Y-92365000D02*
X134575000Y-92365000D01*
X134575000Y-96615000D02*
X134575000Y-96575000D01*
X135227001Y-96077961D02*
X134689962Y-96615000D01*
X135227001Y-92902039D02*
X135227001Y-96077961D01*
X134689962Y-96615000D02*
X134575000Y-96615000D01*
X134887961Y-92562999D02*
X135227001Y-92902039D01*
X134712999Y-92562999D02*
X134887961Y-92562999D01*
X134575000Y-92425000D02*
X134712999Y-92562999D01*
X134575000Y-92365000D02*
X134575000Y-92425000D01*
%TO.N,/D_minus_USB*%
X134460038Y-94065000D02*
X134575000Y-94065000D01*
X133610038Y-94915000D02*
X134460038Y-94065000D01*
X133225000Y-94915000D02*
X133610038Y-94915000D01*
%TD*%
M02*
