M48
; DRILL file {KiCad (5.1.10)-1} date 11/29/21 10:37:48
; FORMAT={-:-/ absolute / inch / decimal}
; #@! TF.CreationDate,2021-11-29T10:37:48-06:00
; #@! TF.GenerationSoftware,Kicad,Pcbnew,(5.1.10)-1
; #@! TF.FileFunction,Plated,1,2,PTH
FMAT,2
INCH
T1C0.0157
T2C0.0236
T3C0.0984
%
G90
G05
T1
X5.2451Y-3.603
X5.2451Y-3.6364
X5.2451Y-3.6699
X5.2451Y-3.7033
X5.2451Y-3.7368
X5.2451Y-3.7703
X5.2451Y-3.8037
X5.2451Y-3.8372
X5.2982Y-3.603
X5.2982Y-3.6364
X5.2982Y-3.6699
X5.2982Y-3.7033
X5.2982Y-3.7368
X5.2982Y-3.7703
X5.2982Y-3.8037
X5.2982Y-3.8372
T3
X4.4941Y-3.7205
T2
G00X5.2541Y-3.5498
M15
G01X5.3132Y-3.5498
M16
G05
G00X5.2541Y-3.8904
M15
G01X5.3132Y-3.8904
M16
G05
G00X5.401Y-3.5498
M15
G01X5.4325Y-3.5498
M16
G05
G00X5.401Y-3.8904
M15
G01X5.4325Y-3.8904
M16
G05
T0
M30
